<?xml version="1.0" encoding="utf-8"?>
<!-- Generator: Adobe Illustrator 19.2.0, SVG Export Plug-In . SVG Version: 6.00 Build 0)  -->
<svg version="1.1" id="Layer_1" xmlns="http://www.w3.org/2000/svg" xmlns:xlink="http://www.w3.org/1999/xlink" x="0px" y="0px"
	 viewBox="0 0 400 400" style="enable-background:new 0 0 400 400;" xml:space="preserve">
<style type="text/css">
	.st0{fill:none;stroke:#FF0000;stroke-width:8;stroke-linecap:round;stroke-linejoin:round;stroke-miterlimit:10;}
</style>
<g>
	<line class="st0" x1="231.7" y1="281.7" x2="172.5" y2="281.7"/>
	<path class="st0" d="M301.5,129H102c0,0,29.2,79.9,33.8,90s6.2,15.4,17.7,15.4c11.6,0,109.5,0,109.5,0c3.3,3.8,14.4,17.3,20.4,24
		c7.9,9,5.6,23.4-13.3,23.4"/>
	<path class="st0" d="M338,99.9h-14.9c-2.2,0-10.9,0.2-14.6,10.5c-4.6,12.7-48.1,124-48.1,124"/>
	<circle class="st0" cx="251.8" cy="281.7" r="18.4"/>
	<circle class="st0" cx="154.1" cy="281.7" r="18.4"/>
	<line class="st0" x1="201.6" y1="234.4" x2="201.6" y2="129"/>
	<line class="st0" x1="178" y1="234.4" x2="168.1" y2="129"/>
	<line class="st0" x1="158.2" y1="234.4" x2="134.9" y2="129"/>
	<line class="st0" x1="224.8" y1="234.4" x2="234.6" y2="129"/>
	<line class="st0" x1="243.8" y1="234.4" x2="267" y2="129"/>
	<line class="st0" x1="293.5" y1="149.6" x2="109.6" y2="149.6"/>
	<line class="st0" x1="284.9" y1="171.5" x2="118.1" y2="171.5"/>
	<line class="st0" x1="276.5" y1="193.3" x2="126.7" y2="193.3"/>
	<line class="st0" x1="267.9" y1="215.3" x2="135.2" y2="215.3"/>
</g>
</svg>
