<?xml version="1.0" encoding="utf-8"?>
<!-- Generator: Adobe Illustrator 28.0.0, SVG Export Plug-In . SVG Version: 6.00 Build 0)  -->
<svg version="1.1" id="Layer_1" xmlns="http://www.w3.org/2000/svg" xmlns:xlink="http://www.w3.org/1999/xlink" x="0px" y="0px"
	 viewBox="0 0 400 400" style="enable-background:new 0 0 400 400;" xml:space="preserve">
<style type="text/css">
	.st0{fill:#FF6161;}
	.st1{fill:#FFD9CB;}
</style>
<rect class="st0" width="400" height="400"/>
<g>
	<g>
		<path class="st1" d="M82.4,145.3c-11.7,14.7-18.6,32.4-18.6,51.4c0,19,6.8,36.7,18.6,51.4V145.3z"/>
		<path class="st1" d="M59.6,161.9c-5.4,10.7-8.4,22.5-8.4,34.9c0,12.4,3,24.1,8.4,34.9V161.9z"/>
		<path class="st1" d="M114.6,139.2c-17.5,14.8-28.4,35.1-28.4,57.6c0,22.4,10.8,42.8,28.4,57.6V139.2z"/>
	</g>
	<g>
		<path class="st1" d="M318.6,248.2c11.7-14.7,18.6-32.4,18.6-51.4c0-19-6.8-36.7-18.6-51.4V248.2z"/>
		<path class="st1" d="M341.4,231.6c5.4-10.7,8.4-22.5,8.4-34.9c0-12.4-3-24.1-8.4-34.9V231.6z"/>
		<path class="st1" d="M286.4,254.3c17.5-14.8,28.4-35.1,28.4-57.6c0-22.4-10.8-42.8-28.4-57.6V254.3z"/>
	</g>
	<g>
		<path class="st1" d="M120.9,259.2l33.2-27.4c13,15.2,25.3,20.9,36.1,20.9c10.8,0,20.2-5.1,20.2-12.3c0-9.4-11.5-13-30.3-23.8
			c-17.7-10.1-34.6-26.7-34.6-50.5c0-34.6,32.5-60.6,72.9-60.6c26,0,46.2,13,61.4,28.9l-31,29.6c-8.7-8.7-18.8-15.9-30.3-15.9
			c-11.5,0-18.8,5.8-18.8,13c0,10.1,15.2,14.4,28.9,22.4c17.3,9.4,36.1,23.8,36.1,50.5c0,36.1-32.5,60.6-78,60.6
			C165.6,294.6,136.8,283,120.9,259.2z"/>
	</g>
</g>
</svg>
