<?xml version="1.0" encoding="utf-8"?>
<!-- Generator: Adobe Illustrator 24.0.1, SVG Export Plug-In . SVG Version: 6.00 Build 0)  -->
<svg version="1.1" id="Layer_1" xmlns="http://www.w3.org/2000/svg" xmlns:xlink="http://www.w3.org/1999/xlink" x="0px" y="0px"
	 viewBox="0 0 400 400" style="enable-background:new 0 0 400 400;" xml:space="preserve">
<style type="text/css">
	.st0{fill:#FFFFFF;}
</style>
<path class="st0" d="M298.1,289.6c5.8,7.2,14.4,11.4,23.5,11.4c16.7,0,30.2-13.5,30.2-30.2c0-14.8-10.6-27.3-25.1-29.8l-2.1-0.4V160
	l2.1-0.4c14.6-2.5,25.1-15,25.1-29.8c0-16.7-13.5-30.2-30.2-30.2c-8.9,0-17.3,3.9-23.1,10.8l-1.3,1.6l-69.6-40.2l0.7-2
	c1.2-3.4,1.9-6.9,1.9-10.5c0-16.7-13.5-30.2-30.2-30.2s-30.2,13.5-30.2,30.2c0,3.6,0.6,7.1,1.9,10.5l0.7,2l-69.5,40.2l-1.3-1.6
	c-5.8-6.9-14.2-10.9-23.1-10.9c-16.7,0-30.2,13.5-30.2,30.2c0,14.8,10.6,27.3,25.1,29.8l2.1,0.4v80.7l-2.1,0.4
	c-14.6,2.5-25.1,15-25.1,29.8c0,16.7,13.5,30.2,30.2,30.2c9.2,0,17.7-4.1,23.5-11.3l1.3-1.7l69.2,40l-0.7,2
	c-1.3,3.4-1.9,6.9-1.9,10.5c0,16.7,13.5,30.2,30.2,30.2s30.2-13.5,30.2-30.2c0-3.6-0.6-7.1-1.9-10.5l-0.7-2l69.2-40L298.1,289.6z
	 M327.5,247.3c0.1,0,0.1,0,0.2,0.1c10.6,2.7,18.1,12.4,18.1,23.4c0,13.3-10.9,24.2-24.2,24.2c-6.7,0-13.1-2.8-17.7-7.7l-2.1-2.3
	l0.2-0.1c-1.5-2.1-2.7-4.5-3.6-7.2c-0.7-2.3-1-4.6-1-6.9c0-11,7.5-20.7,18.1-23.4l0.2,0c1.1-0.3,2.3-0.5,3.4-0.6
	c0.4,0,0.8-0.1,1.2-0.1c0.9,0,1.8,0,2.6,0c0.4,0,0.8,0,1.2,0.1C325.2,246.8,326.4,247,327.5,247.3z M298.5,122.8l0-0.1
	c0.3-1,0.7-1.9,1.1-2.8l0.1-0.1c0.1-0.1,0.1-0.3,0.2-0.4c0.1-0.2,0.2-0.3,0.3-0.5c0.2-0.3,0.3-0.6,0.5-0.9l0.1-0.2
	c0.5-0.9,1.1-1.7,1.7-2.5l0.1-0.1c0.2-0.3,0.6-0.7,0.9-1.1c0.4-0.4,0.7-0.8,1.1-1.1c4.6-4.6,10.6-7.1,17.1-7.1
	c13.3,0,24.2,10.9,24.2,24.2c0,11-7.5,20.7-18.1,23.4l-0.2,0c-1.5,0.4-3.1,0.6-4.6,0.7c-0.4,0-0.9,0-1.3,0c-0.4,0-0.9,0-1.3,0
	c-1.6-0.1-3.1-0.3-4.6-0.7c-0.1,0-0.1,0-0.2-0.1c-4.4-1.1-8.4-3.5-11.6-6.9l-0.3-0.3c-4-4.5-6.2-10.2-6.2-16.2
	C297.4,127.5,297.8,125.1,298.5,122.8z M294.1,117.3l-0.8,2c-1.3,3.4-1.9,7-1.9,10.6c0,3.6,0.6,7.1,1.9,10.4l0.7,2l-69.4,40.1
	l-1.3-1.6c-4.6-5.6-11.1-9.3-18.2-10.5l-2.1-0.4V89.6l2.1-0.4c7.1-1.2,13.5-4.9,18.2-10.5l1.3-1.6L294.1,117.3z M222.3,190.6
	l0.2-0.1l0.8,3.1c0.6,2.1,0.9,4.2,0.9,6.4c0,13.3-10.9,24.2-24.2,24.2c-13.3,0-24.2-10.9-24.2-24.2c0-6,2.2-11.8,6.2-16.2l0.3-0.3
	c4.5-4.9,11-7.7,17.7-7.7c6.5,0,12.7,2.6,17.2,7.2l2.3,2.3l-0.2,0.1C220.5,187,221.5,188.8,222.3,190.6z M200,35.3
	c13.3,0,24.2,10.9,24.2,24.2c0,2.1-0.3,4.3-0.9,6.4l-0.8,3.1l-0.2-0.1c-0.8,1.9-1.8,3.6-3,5.2l0.2,0.1l-2.2,2.3
	c-4.6,4.6-10.7,7.2-17.2,7.2s-12.7-2.6-17.2-7.2l-2.3-2.3l0.2-0.1c-1.2-1.6-2.2-3.3-3-5.2l-0.2,0.1l-0.9-3.1
	c-0.6-2.1-0.9-4.2-0.9-6.4C175.8,46.2,186.7,35.3,200,35.3z M175.4,77.1l1.3,1.6c4.6,5.6,11.1,9.3,18.2,10.5l2.1,0.4v80.3l-2.1,0.4
	c-7.1,1.2-13.6,5-18.2,10.6l-1.3,1.6L106,142.3l0.7-2c1.2-3.3,1.9-6.9,1.9-10.4c0-3.6-0.7-7.2-1.9-10.6l-0.7-2L175.4,77.1z
	 M54.2,129.9c0-13.3,10.9-24.2,24.2-24.2c13.3,0,24.2,10.9,24.2,24.2c0,13.3-10.9,24.2-24.2,24.2C65.1,154.1,54.2,143.2,54.2,129.9z
	 M78.4,295c-13.3,0-24.2-10.9-24.2-24.2s10.9-24.2,24.2-24.2c13.3,0,24.2,10.9,24.2,24.2S91.7,295,78.4,295z M200,364.7
	c-13.3,0-24.2-10.9-24.2-24.2c0-11,7.5-20.7,18.1-23.4l0.2,0c1.5-0.4,3.1-0.6,4.6-0.7c0.9,0,1.7,0,2.6,0c1.6,0.1,3.1,0.3,4.6,0.7
	c0.1,0,0.1,0,0.2,0.1c10.6,2.7,18.1,12.4,18.1,23.4C224.2,353.8,213.3,364.7,200,364.7z M293.1,280.8l0.7,2l-69.3,40.1l-1.3-1.6
	c-4.6-5.5-11.1-9.3-18.1-10.5l-2.1-0.4V246c-2,0.2-4.2,0.2-6,0v64.4l-2.1,0.4c-7.1,1.2-13.5,4.9-18.1,10.5l-1.3,1.6l-69.3-40l0.7-2
	c1.1-3.2,1.7-6.6,1.7-10c0-3.5-0.6-7-1.8-10.3l-0.7-2l55.5-32c-1.2-1.7-2.2-3.4-3.1-5.1l-55.3,31.9l-1.3-1.6
	c-4.6-5.7-11.1-9.5-18.3-10.7l-2.1-0.4V160l2.1-0.4c7.1-1.2,13.5-5,18.2-10.5l1.3-1.6l69.4,40.1l-0.7,2c-1.2,3.3-1.9,6.8-1.9,10.4
	c0,16.7,13.5,30.2,30.2,30.2s30.2-13.5,30.2-30.2c0-3.6-0.6-7.1-1.9-10.5l-0.7-2l69.4-40.1l1.3,1.6c4.6,5.6,11.1,9.3,18.2,10.6
	l2.1,0.4v80.7l-2.1,0.4c-7.1,1.2-13.6,5-18.3,10.6l-1.3,1.6l-55.2-31.9c-0.9,1.8-2,3.5-3.1,5.1l55.4,31.9l-0.7,2
	c-1.2,3.3-1.8,6.8-1.8,10.4C291.4,274.2,292,277.6,293.1,280.8z"/>
</svg>
