<?xml version="1.0" encoding="utf-8"?>
<!-- Generator: Adobe Illustrator 27.7.0, SVG Export Plug-In . SVG Version: 6.00 Build 0)  -->
<svg version="1.1" id="Layer_1" xmlns="http://www.w3.org/2000/svg" xmlns:xlink="http://www.w3.org/1999/xlink" x="0px" y="0px"
	 viewBox="0 0 400 400" style="enable-background:new 0 0 400 400;" xml:space="preserve">
<style type="text/css">
	.st0{fill:none;stroke:#FFFFFF;stroke-width:10;stroke-miterlimit:10;}
	.st1{fill:#FFFFFF;}
	.st2{fill-rule:evenodd;clip-rule:evenodd;fill:#FFFFFF;}
</style>
<g>
	<ellipse class="st0" cx="200" cy="199.8" rx="117.1" ry="117.1"/>
	<path class="st1" d="M136.7,266.1l9.8-36.4c-5.5-10-8.4-21.2-8.4-32.5c0-37.1,30.2-67.3,67.3-67.3s67.3,30.2,67.3,67.3
		s-30.2,67.3-67.3,67.3c-11.1,0-22.1-2.8-32-8.2L136.7,266.1z M175.2,242.6l2.3,1.4c8.5,5,18.1,7.7,27.8,7.7
		c30.1,0,54.6-24.5,54.6-54.6s-24.5-54.6-54.6-54.6s-54.6,24.5-54.6,54.6c0,9.9,2.8,19.7,8,28.3l1.4,2.3l-5.5,20.3L175.2,242.6z"/>
	<path class="st2" d="M230.3,206.5c-2.8-1.7-6.4-3.5-9.6-2.2c-2.5,1-4.1,4.9-5.7,6.9c-0.8,1-1.8,1.2-3.1,0.7
		c-9.4-3.7-16.6-10-21.8-18.7c-0.9-1.3-0.7-2.4,0.3-3.6c1.6-1.8,3.5-3.9,4-6.4c0.4-2.5-0.7-5.4-1.8-7.6c-1.3-2.8-2.8-6.9-5.6-8.5
		c-2.6-1.5-6-0.6-8.4,1.2c-4,3.3-5.9,8.4-5.9,13.4c0,1.4,0.2,2.9,0.5,4.3c0.8,3.3,2.4,6.5,4.1,9.4c1.3,2.2,2.7,4.4,4.3,6.5
		c5,6.8,11.3,12.8,18.5,17.2c3.6,2.2,7.5,4.2,11.5,5.5c4.5,1.5,8.6,3,13.4,2.1c5.1-1,10.2-4.1,12.2-9.1c0.6-1.5,0.9-3.1,0.6-4.6
		C237.2,209.9,232.9,208,230.3,206.5z"/>
</g>
</svg>
