<?xml version="1.0" encoding="utf-8"?>
<!-- Generator: Adobe Illustrator 28.0.0, SVG Export Plug-In . SVG Version: 6.00 Build 0)  -->
<svg version="1.1" id="Capa_2_00000160872509055196291650000005346500661897056682_"
	 xmlns="http://www.w3.org/2000/svg" xmlns:xlink="http://www.w3.org/1999/xlink" x="0px" y="0px" viewBox="0 0 1280 495.5"
	 style="enable-background:new 0 0 1280 495.5;" xml:space="preserve">
<style type="text/css">
	.st0{fill:#30C2D1;}
</style>
<g>
	<g>
		<g>
			<g>
				<path class="st0" d="M-0.5,174.2c45.7,0,45.7-96.9,91.4-96.9s45.7,96.9,91.4,96.9c45.7,0,45.7-96.9,91.4-96.9
					c45.7,0,45.7,96.9,91.4,96.9c45.7,0,45.7-96.9,91.4-96.9c45.7,0,45.7,96.9,91.4,96.9c45.7,0,45.7-96.9,91.4-96.9v-9.7
					c-45.7,0-45.7,77.5-91.4,77.5c-45.7,0-45.7-77.5-91.4-77.5c-45.7,0-45.7,77.5-91.4,77.5c-45.7,0-45.7-77.5-91.4-77.5
					c-45.7,0-45.7,77.5-91.4,77.5c-45.7,0-45.7-77.5-91.4-77.5s-45.7,77.5-91.4,77.5V174.2z"/>
				<path class="st0" d="M-0.5,136.6c45.7,0,45.7-77.5,91.4-77.5s45.7,77.5,91.4,77.5c45.7,0,45.7-77.5,91.4-77.5
					c45.7,0,45.7,77.5,91.4,77.5c45.7,0,45.7-77.5,91.4-77.5c45.7,0,45.7,77.5,91.4,77.5c45.7,0,45.7-77.5,91.4-77.5v-6.5
					c-45.7,0-45.7,58.2-91.4,58.2c-45.7,0-45.7-58.2-91.4-58.2c-45.7,0-45.7,58.2-91.4,58.2c-45.7,0-45.7-58.2-91.4-58.2
					c-45.7,0-45.7,58.2-91.4,58.2c-45.7,0-45.7-58.2-91.4-58.2s-45.7,58.2-91.4,58.2V136.6z"/>
				<path class="st0" d="M-0.5,101.7c45.7,0,45.7-58.2,91.4-58.2s45.7,58.2,91.4,58.2c45.7,0,45.7-58.2,91.4-58.2
					c45.7,0,45.7,58.2,91.4,58.2c45.7,0,45.7-58.2,91.4-58.2c45.7,0,45.7,58.2,91.4,58.2c45.7,0,45.7-58.2,91.4-58.2V38
					c-45.7,0-45.7,38.8-91.4,38.8c-45.7,0-45.7-38.8-91.4-38.8c-45.7,0-45.7,38.8-91.4,38.8c-45.7,0-45.7-38.8-91.4-38.8
					c-45.7,0-45.7,38.8-91.4,38.8c-45.7,0-45.7-38.8-91.4-38.8S45.2,76.8-0.5,76.8V101.7z"/>
				<path class="st0" d="M639.5,31c-45.7,0-45.7,38.8-91.4,38.8c-45.7,0-45.7-38.8-91.4-38.8c-45.7,0-45.7,38.8-91.4,38.8
					c-45.7,0-45.7-38.8-91.4-38.8c-45.7,0-45.7,38.8-91.4,38.8c-45.7,0-45.7-38.8-91.4-38.8S45.2,69.7-0.5,69.7V43.9
					c45.7,0,45.7-19.4,91.4-19.4s45.7,19.4,91.4,19.4c45.7,0,45.7-19.4,91.4-19.4c45.7,0,45.7,19.4,91.4,19.4
					c45.7,0,45.7-19.4,91.4-19.4c45.7,0,45.7,19.4,91.4,19.4c45.7,0,45.7-19.4,91.4-19.4V31z"/>
				<path class="st0" d="M-0.5,32.5c45.7,0,45.7-32.3,91.4-32.3c45.7,0,45.7,32.3,91.4,32.3c45.7,0,45.7-32.3,91.4-32.3
					c45.7,0,45.7,32.3,91.4,32.3c45.7,0,45.7-32.3,91.4-32.3c45.7,0,45.7,32.3,91.4,32.3c45.7,0,45.7-32.3,91.4-32.3v18.5
					c-45.7,0-45.7,19.4-91.4,19.4c-45.7,0-45.7-19.4-91.4-19.4c-45.7,0-45.7,19.4-91.4,19.4c-45.7,0-45.7-19.4-91.4-19.4
					c-45.7,0-45.7,19.4-91.4,19.4c-45.7,0-45.7-19.4-91.4-19.4S45.2,38.2-0.5,38.2V32.5z"/>
			</g>
			<g>
				<path class="st0" d="M639.5,87.2c-45.7,0-45.7,96.9-91.4,96.9s-45.7-96.9-91.4-96.9c-45.7,0-45.7,96.9-91.4,96.9
					c-45.7,0-45.7-96.9-91.4-96.9c-45.7,0-45.7,96.9-91.4,96.9c-45.7,0-45.7-96.9-91.4-96.9c-45.7,0-45.7,96.9-91.4,96.9v9.7
					c45.7,0,45.7-77.5,91.4-77.5c45.7,0,45.7,77.5,91.4,77.5c45.7,0,45.7-77.5,91.4-77.5c45.7,0,45.7,77.5,91.4,77.5
					c45.7,0,45.7-77.5,91.4-77.5c45.7,0,45.7,77.5,91.4,77.5s45.7-77.5,91.4-77.5V87.2z"/>
				<path class="st0" d="M639.5,124.8c-45.7,0-45.7,77.5-91.4,77.5s-45.7-77.5-91.4-77.5c-45.7,0-45.7,77.5-91.4,77.5
					c-45.7,0-45.7-77.5-91.4-77.5c-45.7,0-45.7,77.5-91.4,77.5c-45.7,0-45.7-77.5-91.4-77.5c-45.7,0-45.7,77.5-91.4,77.5v6.5
					c45.7,0,45.7-58.2,91.4-58.2c45.7,0,45.7,58.2,91.4,58.2c45.7,0,45.7-58.2,91.4-58.2c45.7,0,45.7,58.2,91.4,58.2
					c45.7,0,45.7-58.2,91.4-58.2c45.7,0,45.7,58.2,91.4,58.2s45.7-58.2,91.4-58.2V124.8z"/>
				<path class="st0" d="M639.5,159.7c-45.7,0-45.7,58.2-91.4,58.2s-45.7-58.2-91.4-58.2c-45.7,0-45.7,58.2-91.4,58.2
					c-45.7,0-45.7-58.2-91.4-58.2c-45.7,0-45.7,58.2-91.4,58.2c-45.7,0-45.7-58.2-91.4-58.2c-45.7,0-45.7,58.2-91.4,58.2v5.5
					c45.7,0,45.7-38.8,91.4-38.8c45.7,0,45.7,38.8,91.4,38.8c45.7,0,45.7-38.8,91.4-38.8c45.7,0,45.7,38.8,91.4,38.8
					c45.7,0,45.7-38.8,91.4-38.8c45.7,0,45.7,38.8,91.4,38.8s45.7-38.8,91.4-38.8V159.7z"/>
				<path class="st0" d="M-0.5,230.5c45.7,0,45.7-38.8,91.4-38.8c45.7,0,45.7,38.8,91.4,38.8c45.7,0,45.7-38.8,91.4-38.8
					c45.7,0,45.7,38.8,91.4,38.8c45.7,0,45.7-38.8,91.4-38.8c45.7,0,45.7,38.8,91.4,38.8s45.7-38.8,91.4-38.8v25.9
					c-45.7,0-45.7,19.4-91.4,19.4s-45.7-19.4-91.4-19.4c-45.7,0-45.7,19.4-91.4,19.4c-45.7,0-45.7-19.4-91.4-19.4
					c-45.7,0-45.7,19.4-91.4,19.4c-45.7,0-45.7-19.4-91.4-19.4c-45.7,0-45.7,19.4-91.4,19.4V230.5z"/>
				<path class="st0" d="M639.5,228.9c-45.7,0-45.7,32.3-91.4,32.3s-45.7-32.3-91.4-32.3c-45.7,0-45.7,32.3-91.4,32.3
					c-45.7,0-45.7-32.3-91.4-32.3c-45.7,0-45.7,32.3-91.4,32.3c-45.7,0-45.7-32.3-91.4-32.3c-45.7,0-45.7,32.3-91.4,32.3v-18.5
					c45.7,0,45.7-19.4,91.4-19.4c45.7,0,45.7,19.4,91.4,19.4c45.7,0,45.7-19.4,91.4-19.4c45.7,0,45.7,19.4,91.4,19.4
					c45.7,0,45.7-19.4,91.4-19.4c45.7,0,45.7,19.4,91.4,19.4s45.7-19.4,91.4-19.4V228.9z"/>
			</g>
		</g>
		<g>
			<g>
				<path class="st0" d="M-0.5,408.8c45.7,0,45.7-96.9,91.4-96.9s45.7,96.9,91.4,96.9c45.7,0,45.7-96.9,91.4-96.9
					c45.7,0,45.7,96.9,91.4,96.9c45.7,0,45.7-96.9,91.4-96.9c45.7,0,45.7,96.9,91.4,96.9c45.7,0,45.7-96.9,91.4-96.9v-9.7
					c-45.7,0-45.7,77.5-91.4,77.5c-45.7,0-45.7-77.5-91.4-77.5c-45.7,0-45.7,77.5-91.4,77.5c-45.7,0-45.7-77.5-91.4-77.5
					c-45.7,0-45.7,77.5-91.4,77.5c-45.7,0-45.7-77.5-91.4-77.5s-45.7,77.5-91.4,77.5V408.8z"/>
				<path class="st0" d="M-0.5,371.2c45.7,0,45.7-77.5,91.4-77.5s45.7,77.5,91.4,77.5c45.7,0,45.7-77.5,91.4-77.5
					c45.7,0,45.7,77.5,91.4,77.5c45.7,0,45.7-77.5,91.4-77.5c45.7,0,45.7,77.5,91.4,77.5c45.7,0,45.7-77.5,91.4-77.5v-6.5
					c-45.7,0-45.7,58.2-91.4,58.2c-45.7,0-45.7-58.2-91.4-58.2c-45.7,0-45.7,58.2-91.4,58.2c-45.7,0-45.7-58.2-91.4-58.2
					c-45.7,0-45.7,58.2-91.4,58.2c-45.7,0-45.7-58.2-91.4-58.2s-45.7,58.2-91.4,58.2V371.2z"/>
				<path class="st0" d="M-0.5,336.3c45.7,0,45.7-58.2,91.4-58.2s45.7,58.2,91.4,58.2c45.7,0,45.7-58.2,91.4-58.2
					c45.7,0,45.7,58.2,91.4,58.2c45.7,0,45.7-58.2,91.4-58.2c45.7,0,45.7,58.2,91.4,58.2c45.7,0,45.7-58.2,91.4-58.2v-5.5
					c-45.7,0-45.7,38.8-91.4,38.8c-45.7,0-45.7-38.8-91.4-38.8c-45.7,0-45.7,38.8-91.4,38.8c-45.7,0-45.7-38.8-91.4-38.8
					c-45.7,0-45.7,38.8-91.4,38.8c-45.7,0-45.7-38.8-91.4-38.8s-45.7,38.8-91.4,38.8V336.3z"/>
				<path class="st0" d="M639.5,265.5c-45.7,0-45.7,38.8-91.4,38.8c-45.7,0-45.7-38.8-91.4-38.8c-45.7,0-45.7,38.8-91.4,38.8
					c-45.7,0-45.7-38.8-91.4-38.8c-45.7,0-45.7,38.8-91.4,38.8c-45.7,0-45.7-38.8-91.4-38.8s-45.7,38.8-91.4,38.8v-25.9
					c45.7,0,45.7-19.4,91.4-19.4s45.7,19.4,91.4,19.4c45.7,0,45.7-19.4,91.4-19.4c45.7,0,45.7,19.4,91.4,19.4
					c45.7,0,45.7-19.4,91.4-19.4c45.7,0,45.7,19.4,91.4,19.4c45.7,0,45.7-19.4,91.4-19.4V265.5z"/>
				<path class="st0" d="M-0.5,267.1c45.7,0,45.7-32.3,91.4-32.3s45.7,32.3,91.4,32.3c45.7,0,45.7-32.3,91.4-32.3
					c45.7,0,45.7,32.3,91.4,32.3c45.7,0,45.7-32.3,91.4-32.3c45.7,0,45.7,32.3,91.4,32.3c45.7,0,45.7-32.3,91.4-32.3v18.5
					c-45.7,0-45.7,19.4-91.4,19.4c-45.7,0-45.7-19.4-91.4-19.4c-45.7,0-45.7,19.4-91.4,19.4c-45.7,0-45.7-19.4-91.4-19.4
					c-45.7,0-45.7,19.4-91.4,19.4c-45.7,0-45.7-19.4-91.4-19.4s-45.7,19.4-91.4,19.4V267.1z"/>
			</g>
			<g>
				<path class="st0" d="M639.5,321.8c-45.7,0-45.7,96.9-91.4,96.9s-45.7-96.9-91.4-96.9c-45.7,0-45.7,96.9-91.4,96.9
					c-45.7,0-45.7-96.9-91.4-96.9c-45.7,0-45.7,96.9-91.4,96.9c-45.7,0-45.7-96.9-91.4-96.9c-45.7,0-45.7,96.9-91.4,96.9v9.7
					c45.7,0,45.7-77.5,91.4-77.5c45.7,0,45.7,77.5,91.4,77.5c45.7,0,45.7-77.5,91.4-77.5c45.7,0,45.7,77.5,91.4,77.5
					c45.7,0,45.7-77.5,91.4-77.5c45.7,0,45.7,77.5,91.4,77.5s45.7-77.5,91.4-77.5V321.8z"/>
				<path class="st0" d="M639.5,359.4c-45.7,0-45.7,77.5-91.4,77.5s-45.7-77.5-91.4-77.5c-45.7,0-45.7,77.5-91.4,77.5
					c-45.7,0-45.7-77.5-91.4-77.5c-45.7,0-45.7,77.5-91.4,77.5c-45.7,0-45.7-77.5-91.4-77.5c-45.7,0-45.7,77.5-91.4,77.5v6.5
					c45.7,0,45.7-58.2,91.4-58.2c45.7,0,45.7,58.2,91.4,58.2c45.7,0,45.7-58.2,91.4-58.2c45.7,0,45.7,58.2,91.4,58.2
					c45.7,0,45.7-58.2,91.4-58.2c45.7,0,45.7,58.2,91.4,58.2s45.7-58.2,91.4-58.2V359.4z"/>
				<path class="st0" d="M639.5,394.3c-45.7,0-45.7,58.2-91.4,58.2s-45.7-58.2-91.4-58.2c-45.7,0-45.7,58.2-91.4,58.2
					c-45.7,0-45.7-58.2-91.4-58.2c-45.7,0-45.7,58.2-91.4,58.2c-45.7,0-45.7-58.2-91.4-58.2c-45.7,0-45.7,58.2-91.4,58.2v5.5
					c45.7,0,45.7-38.8,91.4-38.8c45.7,0,45.7,38.8,91.4,38.8c45.7,0,45.7-38.8,91.4-38.8c45.7,0,45.7,38.8,91.4,38.8
					c45.7,0,45.7-38.8,91.4-38.8c45.7,0,45.7,38.8,91.4,38.8s45.7-38.8,91.4-38.8V394.3z"/>
				<path class="st0" d="M-0.5,465c45.7,0,45.7-38.8,91.4-38.8c45.7,0,45.7,38.8,91.4,38.8c45.7,0,45.7-38.8,91.4-38.8
					c45.7,0,45.7,38.8,91.4,38.8c45.7,0,45.7-38.8,91.4-38.8c45.7,0,45.7,38.8,91.4,38.8s45.7-38.8,91.4-38.8v25.9
					c-45.7,0-45.7,19.4-91.4,19.4s-45.7-19.4-91.4-19.4c-45.7,0-45.7,19.4-91.4,19.4c-45.7,0-45.7-19.4-91.4-19.4
					c-45.7,0-45.7,19.4-91.4,19.4c-45.7,0-45.7-19.4-91.4-19.4c-45.7,0-45.7,19.4-91.4,19.4V465z"/>
				<path class="st0" d="M639.5,463.5c-45.7,0-45.7,32.3-91.4,32.3s-45.7-32.3-91.4-32.3c-45.7,0-45.7,32.3-91.4,32.3
					c-45.7,0-45.7-32.3-91.4-32.3c-45.7,0-45.7,32.3-91.4,32.3c-45.7,0-45.7-32.3-91.4-32.3c-45.7,0-45.7,32.3-91.4,32.3v-18.5
					c45.7,0,45.7-19.4,91.4-19.4c45.7,0,45.7,19.4,91.4,19.4c45.7,0,45.7-19.4,91.4-19.4c45.7,0,45.7,19.4,91.4,19.4
					c45.7,0,45.7-19.4,91.4-19.4c45.7,0,45.7,19.4,91.4,19.4s45.7-19.4,91.4-19.4V463.5z"/>
			</g>
		</g>
	</g>
	<g>
		<g>
			<g>
				<path class="st0" d="M1279.5,174.2c-45.7,0-45.7-96.9-91.4-96.9s-45.7,96.9-91.4,96.9c-45.7,0-45.7-96.9-91.4-96.9
					c-45.7,0-45.7,96.9-91.4,96.9c-45.7,0-45.7-96.9-91.4-96.9c-45.7,0-45.7,96.9-91.4,96.9c-45.7,0-45.7-96.9-91.4-96.9v-9.7
					c45.7,0,45.7,77.5,91.4,77.5c45.7,0,45.7-77.5,91.4-77.5c45.7,0,45.7,77.5,91.4,77.5c45.7,0,45.7-77.5,91.4-77.5
					c45.7,0,45.7,77.5,91.4,77.5c45.7,0,45.7-77.5,91.4-77.5s45.7,77.5,91.4,77.5V174.2z"/>
				<path class="st0" d="M1279.5,136.6c-45.7,0-45.7-77.5-91.4-77.5s-45.7,77.5-91.4,77.5c-45.7,0-45.7-77.5-91.4-77.5
					c-45.7,0-45.7,77.5-91.4,77.5c-45.7,0-45.7-77.5-91.4-77.5c-45.7,0-45.7,77.5-91.4,77.5c-45.7,0-45.7-77.5-91.4-77.5v-6.5
					c45.7,0,45.7,58.2,91.4,58.2c45.7,0,45.7-58.2,91.4-58.2c45.7,0,45.7,58.2,91.4,58.2c45.7,0,45.7-58.2,91.4-58.2
					c45.7,0,45.7,58.2,91.4,58.2c45.7,0,45.7-58.2,91.4-58.2s45.7,58.2,91.4,58.2V136.6z"/>
				<path class="st0" d="M1279.5,101.7c-45.7,0-45.7-58.2-91.4-58.2s-45.7,58.2-91.4,58.2c-45.7,0-45.7-58.2-91.4-58.2
					c-45.7,0-45.7,58.2-91.4,58.2c-45.7,0-45.7-58.2-91.4-58.2c-45.7,0-45.7,58.2-91.4,58.2c-45.7,0-45.7-58.2-91.4-58.2V38
					c45.7,0,45.7,38.8,91.4,38.8c45.7,0,45.7-38.8,91.4-38.8c45.7,0,45.7,38.8,91.4,38.8c45.7,0,45.7-38.8,91.4-38.8
					c45.7,0,45.7,38.8,91.4,38.8c45.7,0,45.7-38.8,91.4-38.8s45.7,38.8,91.4,38.8V101.7z"/>
				<path class="st0" d="M639.5,31c45.7,0,45.7,38.8,91.4,38.8c45.7,0,45.7-38.8,91.4-38.8c45.7,0,45.7,38.8,91.4,38.8
					c45.7,0,45.7-38.8,91.4-38.8c45.7,0,45.7,38.8,91.4,38.8c45.7,0,45.7-38.8,91.4-38.8s45.7,38.8,91.4,38.8V43.9
					c-45.7,0-45.7-19.4-91.4-19.4s-45.7,19.4-91.4,19.4c-45.7,0-45.7-19.4-91.4-19.4c-45.7,0-45.7,19.4-91.4,19.4
					c-45.7,0-45.7-19.4-91.4-19.4c-45.7,0-45.7,19.4-91.4,19.4c-45.7,0-45.7-19.4-91.4-19.4V31z"/>
				<path class="st0" d="M1279.5,32.5c-45.7,0-45.7-32.3-91.4-32.3c-45.7,0-45.7,32.3-91.4,32.3c-45.7,0-45.7-32.3-91.4-32.3
					c-45.7,0-45.7,32.3-91.4,32.3c-45.7,0-45.7-32.3-91.4-32.3c-45.7,0-45.7,32.3-91.4,32.3c-45.7,0-45.7-32.3-91.4-32.3v18.5
					c45.7,0,45.7,19.4,91.4,19.4c45.7,0,45.7-19.4,91.4-19.4c45.7,0,45.7,19.4,91.4,19.4c45.7,0,45.7-19.4,91.4-19.4
					c45.7,0,45.7,19.4,91.4,19.4c45.7,0,45.7-19.4,91.4-19.4s45.7,19.4,91.4,19.4V32.5z"/>
			</g>
			<g>
				<path class="st0" d="M639.5,87.2c45.7,0,45.7,96.9,91.4,96.9c45.7,0,45.7-96.9,91.4-96.9c45.7,0,45.7,96.9,91.4,96.9
					c45.7,0,45.7-96.9,91.4-96.9c45.7,0,45.7,96.9,91.4,96.9c45.7,0,45.7-96.9,91.4-96.9c45.7,0,45.7,96.9,91.4,96.9v9.7
					c-45.7,0-45.7-77.5-91.4-77.5c-45.7,0-45.7,77.5-91.4,77.5c-45.7,0-45.7-77.5-91.4-77.5c-45.7,0-45.7,77.5-91.4,77.5
					c-45.7,0-45.7-77.5-91.4-77.5c-45.7,0-45.7,77.5-91.4,77.5c-45.7,0-45.7-77.5-91.4-77.5V87.2z"/>
				<path class="st0" d="M639.5,124.8c45.7,0,45.7,77.5,91.4,77.5c45.7,0,45.7-77.5,91.4-77.5c45.7,0,45.7,77.5,91.4,77.5
					c45.7,0,45.7-77.5,91.4-77.5c45.7,0,45.7,77.5,91.4,77.5c45.7,0,45.7-77.5,91.4-77.5c45.7,0,45.7,77.5,91.4,77.5v6.5
					c-45.7,0-45.7-58.2-91.4-58.2c-45.7,0-45.7,58.2-91.4,58.2c-45.7,0-45.7-58.2-91.4-58.2c-45.7,0-45.7,58.2-91.4,58.2
					c-45.7,0-45.7-58.2-91.4-58.2c-45.7,0-45.7,58.2-91.4,58.2c-45.7,0-45.7-58.2-91.4-58.2V124.8z"/>
				<path class="st0" d="M639.5,159.7c45.7,0,45.7,58.2,91.4,58.2c45.7,0,45.7-58.2,91.4-58.2c45.7,0,45.7,58.2,91.4,58.2
					c45.7,0,45.7-58.2,91.4-58.2c45.7,0,45.7,58.2,91.4,58.2c45.7,0,45.7-58.2,91.4-58.2c45.7,0,45.7,58.2,91.4,58.2v5.5
					c-45.7,0-45.7-38.8-91.4-38.8c-45.7,0-45.7,38.8-91.4,38.8c-45.7,0-45.7-38.8-91.4-38.8c-45.7,0-45.7,38.8-91.4,38.8
					c-45.7,0-45.7-38.8-91.4-38.8c-45.7,0-45.7,38.8-91.4,38.8c-45.7,0-45.7-38.8-91.4-38.8V159.7z"/>
				<path class="st0" d="M1279.5,230.5c-45.7,0-45.7-38.8-91.4-38.8c-45.7,0-45.7,38.8-91.4,38.8c-45.7,0-45.7-38.8-91.4-38.8
					c-45.7,0-45.7,38.8-91.4,38.8c-45.7,0-45.7-38.8-91.4-38.8c-45.7,0-45.7,38.8-91.4,38.8c-45.7,0-45.7-38.8-91.4-38.8v25.9
					c45.7,0,45.7,19.4,91.4,19.4c45.7,0,45.7-19.4,91.4-19.4c45.7,0,45.7,19.4,91.4,19.4c45.7,0,45.7-19.4,91.4-19.4
					c45.7,0,45.7,19.4,91.4,19.4c45.7,0,45.7-19.4,91.4-19.4c45.7,0,45.7,19.4,91.4,19.4V230.5z"/>
				<path class="st0" d="M639.5,228.9c45.7,0,45.7,32.3,91.4,32.3c45.7,0,45.7-32.3,91.4-32.3c45.7,0,45.7,32.3,91.4,32.3
					c45.7,0,45.7-32.3,91.4-32.3c45.7,0,45.7,32.3,91.4,32.3c45.7,0,45.7-32.3,91.4-32.3c45.7,0,45.7,32.3,91.4,32.3v-18.5
					c-45.7,0-45.7-19.4-91.4-19.4c-45.7,0-45.7,19.4-91.4,19.4c-45.7,0-45.7-19.4-91.4-19.4c-45.7,0-45.7,19.4-91.4,19.4
					c-45.7,0-45.7-19.4-91.4-19.4c-45.7,0-45.7,19.4-91.4,19.4c-45.7,0-45.7-19.4-91.4-19.4V228.9z"/>
			</g>
		</g>
		<g>
			<g>
				<path class="st0" d="M1279.5,408.8c-45.7,0-45.7-96.9-91.4-96.9s-45.7,96.9-91.4,96.9c-45.7,0-45.7-96.9-91.4-96.9
					c-45.7,0-45.7,96.9-91.4,96.9c-45.7,0-45.7-96.9-91.4-96.9c-45.7,0-45.7,96.9-91.4,96.9c-45.7,0-45.7-96.9-91.4-96.9v-9.7
					c45.7,0,45.7,77.5,91.4,77.5c45.7,0,45.7-77.5,91.4-77.5c45.7,0,45.7,77.5,91.4,77.5c45.7,0,45.7-77.5,91.4-77.5
					c45.7,0,45.7,77.5,91.4,77.5c45.7,0,45.7-77.5,91.4-77.5s45.7,77.5,91.4,77.5V408.8z"/>
				<path class="st0" d="M1279.5,371.2c-45.7,0-45.7-77.5-91.4-77.5s-45.7,77.5-91.4,77.5c-45.7,0-45.7-77.5-91.4-77.5
					c-45.7,0-45.7,77.5-91.4,77.5c-45.7,0-45.7-77.5-91.4-77.5c-45.7,0-45.7,77.5-91.4,77.5c-45.7,0-45.7-77.5-91.4-77.5v-6.5
					c45.7,0,45.7,58.2,91.4,58.2c45.7,0,45.7-58.2,91.4-58.2c45.7,0,45.7,58.2,91.4,58.2c45.7,0,45.7-58.2,91.4-58.2
					c45.7,0,45.7,58.2,91.4,58.2c45.7,0,45.7-58.2,91.4-58.2s45.7,58.2,91.4,58.2V371.2z"/>
				<path class="st0" d="M1279.5,336.3c-45.7,0-45.7-58.2-91.4-58.2s-45.7,58.2-91.4,58.2c-45.7,0-45.7-58.2-91.4-58.2
					c-45.7,0-45.7,58.2-91.4,58.2c-45.7,0-45.7-58.2-91.4-58.2c-45.7,0-45.7,58.2-91.4,58.2c-45.7,0-45.7-58.2-91.4-58.2v-5.5
					c45.7,0,45.7,38.8,91.4,38.8c45.7,0,45.7-38.8,91.4-38.8c45.7,0,45.7,38.8,91.4,38.8c45.7,0,45.7-38.8,91.4-38.8
					c45.7,0,45.7,38.8,91.4,38.8c45.7,0,45.7-38.8,91.4-38.8s45.7,38.8,91.4,38.8V336.3z"/>
				<path class="st0" d="M639.5,265.5c45.7,0,45.7,38.8,91.4,38.8c45.7,0,45.7-38.8,91.4-38.8c45.7,0,45.7,38.8,91.4,38.8
					c45.7,0,45.7-38.8,91.4-38.8c45.7,0,45.7,38.8,91.4,38.8c45.7,0,45.7-38.8,91.4-38.8s45.7,38.8,91.4,38.8v-25.9
					c-45.7,0-45.7-19.4-91.4-19.4s-45.7,19.4-91.4,19.4c-45.7,0-45.7-19.4-91.4-19.4c-45.7,0-45.7,19.4-91.4,19.4
					c-45.7,0-45.7-19.4-91.4-19.4c-45.7,0-45.7,19.4-91.4,19.4c-45.7,0-45.7-19.4-91.4-19.4V265.5z"/>
				<path class="st0" d="M1279.5,267.1c-45.7,0-45.7-32.3-91.4-32.3s-45.7,32.3-91.4,32.3c-45.7,0-45.7-32.3-91.4-32.3
					c-45.7,0-45.7,32.3-91.4,32.3c-45.7,0-45.7-32.3-91.4-32.3c-45.7,0-45.7,32.3-91.4,32.3c-45.7,0-45.7-32.3-91.4-32.3v18.5
					c45.7,0,45.7,19.4,91.4,19.4c45.7,0,45.7-19.4,91.4-19.4c45.7,0,45.7,19.4,91.4,19.4c45.7,0,45.7-19.4,91.4-19.4
					c45.7,0,45.7,19.4,91.4,19.4c45.7,0,45.7-19.4,91.4-19.4s45.7,19.4,91.4,19.4V267.1z"/>
			</g>
			<g>
				<path class="st0" d="M639.5,321.8c45.7,0,45.7,96.9,91.4,96.9c45.7,0,45.7-96.9,91.4-96.9c45.7,0,45.7,96.9,91.4,96.9
					c45.7,0,45.7-96.9,91.4-96.9c45.7,0,45.7,96.9,91.4,96.9c45.7,0,45.7-96.9,91.4-96.9c45.7,0,45.7,96.9,91.4,96.9v9.7
					c-45.7,0-45.7-77.5-91.4-77.5c-45.7,0-45.7,77.5-91.4,77.5c-45.7,0-45.7-77.5-91.4-77.5c-45.7,0-45.7,77.5-91.4,77.5
					c-45.7,0-45.7-77.5-91.4-77.5c-45.7,0-45.7,77.5-91.4,77.5c-45.7,0-45.7-77.5-91.4-77.5V321.8z"/>
				<path class="st0" d="M639.5,359.4c45.7,0,45.7,77.5,91.4,77.5c45.7,0,45.7-77.5,91.4-77.5c45.7,0,45.7,77.5,91.4,77.5
					c45.7,0,45.7-77.5,91.4-77.5c45.7,0,45.7,77.5,91.4,77.5c45.7,0,45.7-77.5,91.4-77.5c45.7,0,45.7,77.5,91.4,77.5v6.5
					c-45.7,0-45.7-58.2-91.4-58.2c-45.7,0-45.7,58.2-91.4,58.2c-45.7,0-45.7-58.2-91.4-58.2c-45.7,0-45.7,58.2-91.4,58.2
					c-45.7,0-45.7-58.2-91.4-58.2c-45.7,0-45.7,58.2-91.4,58.2c-45.7,0-45.7-58.2-91.4-58.2V359.4z"/>
				<path class="st0" d="M639.5,394.3c45.7,0,45.7,58.2,91.4,58.2c45.7,0,45.7-58.2,91.4-58.2c45.7,0,45.7,58.2,91.4,58.2
					c45.7,0,45.7-58.2,91.4-58.2c45.7,0,45.7,58.2,91.4,58.2c45.7,0,45.7-58.2,91.4-58.2c45.7,0,45.7,58.2,91.4,58.2v5.5
					c-45.7,0-45.7-38.8-91.4-38.8c-45.7,0-45.7,38.8-91.4,38.8c-45.7,0-45.7-38.8-91.4-38.8c-45.7,0-45.7,38.8-91.4,38.8
					c-45.7,0-45.7-38.8-91.4-38.8c-45.7,0-45.7,38.8-91.4,38.8c-45.7,0-45.7-38.8-91.4-38.8V394.3z"/>
				<path class="st0" d="M1279.5,465c-45.7,0-45.7-38.8-91.4-38.8c-45.7,0-45.7,38.8-91.4,38.8c-45.7,0-45.7-38.8-91.4-38.8
					c-45.7,0-45.7,38.8-91.4,38.8c-45.7,0-45.7-38.8-91.4-38.8c-45.7,0-45.7,38.8-91.4,38.8c-45.7,0-45.7-38.8-91.4-38.8v25.9
					c45.7,0,45.7,19.4,91.4,19.4c45.7,0,45.7-19.4,91.4-19.4c45.7,0,45.7,19.4,91.4,19.4c45.7,0,45.7-19.4,91.4-19.4
					c45.7,0,45.7,19.4,91.4,19.4c45.7,0,45.7-19.4,91.4-19.4c45.7,0,45.7,19.4,91.4,19.4V465z"/>
				<path class="st0" d="M639.5,463.5c45.7,0,45.7,32.3,91.4,32.3c45.7,0,45.7-32.3,91.4-32.3c45.7,0,45.7,32.3,91.4,32.3
					c45.7,0,45.7-32.3,91.4-32.3c45.7,0,45.7,32.3,91.4,32.3c45.7,0,45.7-32.3,91.4-32.3c45.7,0,45.7,32.3,91.4,32.3v-18.5
					c-45.7,0-45.7-19.4-91.4-19.4c-45.7,0-45.7,19.4-91.4,19.4c-45.7,0-45.7-19.4-91.4-19.4c-45.7,0-45.7,19.4-91.4,19.4
					c-45.7,0-45.7-19.4-91.4-19.4c-45.7,0-45.7,19.4-91.4,19.4c-45.7,0-45.7-19.4-91.4-19.4V463.5z"/>
			</g>
		</g>
	</g>
</g>
</svg>
