<?xml version="1.0" encoding="utf-8"?>
<!-- Generator: Adobe Illustrator 28.0.0, SVG Export Plug-In . SVG Version: 6.00 Build 0)  -->
<svg version="1.1" id="Capa_2_00000150095027075882324490000002058512965854668196_"
	 xmlns="http://www.w3.org/2000/svg" xmlns:xlink="http://www.w3.org/1999/xlink" x="0px" y="0px" viewBox="0 0 639.8 495.5"
	 style="enable-background:new 0 0 639.8 495.5;" xml:space="preserve">
<style type="text/css">
	.st0{fill:#96F6FF;}
</style>
<g id="cuadricula">
	<g>
		<g>
			<g>
				<g>
					<path class="st0" d="M0,174c45.7,0,45.7-97,91.4-97s45.7,96.9,91.4,96.9S228.6,77,274.3,77s45.7,97,91.4,97s45.7-97,91.4-97
						s45.7,96.9,91.4,96.9C594.3,174,594.3,77,640,77v-9.7c-45.7,0-45.7,77.6-91.4,77.6s-45.7-77.6-91.4-77.6s-45.7,77.6-91.4,77.6
						S320,67.3,274.3,67.3s-45.7,77.6-91.4,77.6s-45.7-77.6-91.4-77.6s-45.7,77.6-91.4,77.6L0,174L0,174z"/>
					<path class="st0" d="M0,136.4c45.7,0,45.7-77.6,91.4-77.6s45.7,77.6,91.4,77.6s45.7-77.6,91.4-77.6s45.7,77.6,91.4,77.6
						s45.7-77.6,91.4-77.6s45.7,77.6,91.4,77.6s45.7-77.6,91.4-77.6v-6.5c-45.7,0-45.7,58.2-91.4,58.2S502.7,52.3,457,52.3
						s-45.7,58.2-91.4,58.2S320,52.4,274.3,52.4s-45.7,58.2-91.4,58.2s-45.7-58.2-91.4-58.2s-45.7,58.2-91.4,58.2L0,136.4L0,136.4z"
						/>
					<path class="st0" d="M0,101.5c45.7,0,45.7-58.2,91.4-58.2s45.7,58.2,91.4,58.2s45.7-58.2,91.4-58.2s45.7,58.2,91.4,58.2
						s45.7-58.2,91.4-58.2s45.7,58.2,91.4,58.2s45.7-58.2,91.4-58.2v-5.5c-45.7,0-45.7,38.8-91.4,38.8S502.7,37.8,457,37.8
						s-45.7,38.8-91.4,38.8S320,37.8,274.3,37.8s-45.7,38.8-91.4,38.8s-45.7-38.8-91.4-38.8C45.7,37.8,45.7,76.6,0,76.6V101.5
						L0,101.5z"/>
					<path class="st0" d="M640,30.7c-45.7,0-45.7,38.8-91.4,38.8s-45.7-38.8-91.4-38.8s-45.7,38.8-91.4,38.8S320,30.7,274.3,30.7
						s-45.7,38.8-91.4,38.8s-45.7-38.8-91.4-38.8C45.7,30.7,45.7,69.5,0,69.5V43.6c45.7,0,45.7-19.4,91.4-19.4s45.7,19.4,91.4,19.4
						s45.7-19.4,91.4-19.4s45.7,19.4,91.4,19.4s45.7-19.4,91.4-19.4s45.7,19.4,91.4,19.4s45.7-19.4,91.4-19.4v6.5
						C639.8,30.7,640,30.7,640,30.7z"/>
					<path class="st0" d="M0,32.3C45.7,32.3,45.7,0,91.4,0s45.7,32.3,91.4,32.3S228.5,0,274.2,0s45.7,32.3,91.4,32.3
						S411.4,0,457.1,0s45.7,32.3,91.4,32.3C594.3,32.3,594.3,0,640,0v18.5c-45.7,0-45.7,19.4-91.4,19.4s-45.7-19.4-91.4-19.4
						s-45.7,19.4-91.4,19.4S320,18.5,274.3,18.5s-45.7,19.4-91.4,19.4s-45.7-19.4-91.4-19.4C45.7,18.5,45.7,37.9,0,37.9V32.3L0,32.3
						z"/>
				</g>
				<g>
					<path class="st0" d="M640,87c-45.7,0-45.7,96.9-91.4,96.9S502.9,87,457.1,87s-45.7,96.9-91.4,96.9S320,87,274.3,87
						s-45.7,96.9-91.4,96.9S137.2,87,91.5,87C45.7,87,45.7,183.9,0,183.9v9.7c45.7,0,45.7-77.6,91.4-77.6s45.7,77.6,91.4,77.6
						s45.7-77.6,91.4-77.6s45.7,77.6,91.4,77.6S411.3,116,457,116s45.7,77.6,91.4,77.6s45.7-77.6,91.4-77.6C640,116.1,640,87,640,87
						z"/>
					<path class="st0" d="M640,124.6c-45.7,0-45.7,77.6-91.4,77.6s-45.7-77.6-91.4-77.6s-45.7,77.6-91.4,77.6s-45.7-77.6-91.4-77.6
						s-45.7,77.6-91.4,77.6s-45.7-77.6-91.4-77.6s-45.7,77.6-91.4,77.6v6.5c45.7,0,45.7-58.2,91.4-58.2s45.7,58.2,91.4,58.2
						s45.7-58.2,91.4-58.2s45.7,58.2,91.4,58.2s45.7-58.2,91.4-58.2s45.7,58.2,91.4,58.2s45.7-58.2,91.4-58.2V124.6z"/>
					<path class="st0" d="M640,159.5c-45.7,0-45.7,58.2-91.4,58.2s-45.7-58.2-91.4-58.2s-45.7,58.2-91.4,58.2s-45.7-58.2-91.4-58.2
						s-45.7,58.2-91.4,58.2s-45.7-58.2-91.4-58.2s-45.7,58.2-91.4,58.2v5.5c45.7,0,45.7-38.8,91.4-38.8s45.7,38.8,91.4,38.8
						s45.7-38.8,91.4-38.8s45.7,38.8,91.4,38.8s45.7-38.8,91.4-38.8s45.7,38.8,91.4,38.8s45.7-38.8,91.4-38.8V159.5z"/>
					<path class="st0" d="M0,230.2c45.7,0,45.7-38.8,91.4-38.8s45.7,38.8,91.4,38.8s45.7-38.8,91.4-38.8s45.7,38.8,91.4,38.8
						s45.7-38.8,91.4-38.8s45.7,38.8,91.4,38.8s45.7-38.8,91.4-38.8v25.9c-45.7,0-45.7,19.4-91.4,19.4s-45.7-19.4-91.4-19.4
						s-45.7,19.4-91.4,19.4s-45.7-19.4-91.4-19.4s-45.7,19.4-91.4,19.4s-45.7-19.4-91.4-19.4S45.7,236.7,0,236.7V230.2L0,230.2z"/>
					<path class="st0" d="M640,228.7c-45.7,0-45.7,32.3-91.4,32.3s-45.7-32.3-91.4-32.3S411.4,261,365.7,261s-45.7-32.3-91.4-32.3
						S228.6,261,182.9,261s-45.7-32.3-91.4-32.3C45.7,228.7,45.7,261,0,261v-18.6c45.7,0,45.7-19.4,91.4-19.4s45.7,19.4,91.4,19.4
						s45.7-19.4,91.4-19.4s45.7,19.4,91.4,19.4S411.3,223,457,223s45.7,19.4,91.4,19.4s45.7-19.4,91.4-19.4v5.7H640z"/>
				</g>
			</g>
			<g>
				<g>
					<path class="st0" d="M0,408.5c45.7,0,45.7-96.9,91.4-96.9s45.7,96.9,91.4,96.9s45.7-96.9,91.4-96.9s45.7,96.9,91.4,96.9
						s45.7-96.9,91.4-96.9s45.7,96.9,91.4,96.9s45.7-96.9,91.4-96.9v-9.7c-45.7,0-45.7,77.6-91.4,77.6S502.7,302,457,302
						s-45.7,77.5-91.4,77.5S319.9,302,274.2,302s-45.7,77.5-91.4,77.5S137.1,302,91.4,302S45.7,379.5,0,379.5V408.5L0,408.5z"/>
					<path class="st0" d="M0,371c45.7,0,45.7-77.6,91.4-77.6s45.7,77.5,91.4,77.5s45.7-77.5,91.4-77.5S320,371,365.7,371
						s45.7-77.5,91.4-77.5s45.7,77.5,91.4,77.5s45.7-77.5,91.4-77.5V287c-45.7,0-45.7,58.2-91.4,58.2S502.8,287,457.1,287
						s-45.7,58.2-91.4,58.2S320,287,274.3,287s-45.7,58.2-91.4,58.2S137.2,287,91.5,287s-45.7,58.2-91.4,58.2L0,371L0,371z"/>
					<path class="st0" d="M0,336c45.7,0,45.7-58.2,91.4-58.2s45.7,58.2,91.4,58.2s45.7-58.2,91.4-58.2S320,336,365.7,336
						s45.7-58.2,91.4-58.2s45.7,58.2,91.4,58.2s45.7-58.2,91.4-58.2v-5.5c-45.7,0-45.7,38.8-91.4,38.8s-45.7-38.8-91.4-38.8
						s-45.7,38.8-91.4,38.8s-45.7-38.8-91.4-38.8s-45.7,38.8-91.4,38.8s-45.7-38.8-91.4-38.8s-45.7,38.8-91.4,38.8L0,336L0,336z"/>
					<path class="st0" d="M640,265.3c-45.7,0-45.7,38.8-91.4,38.8s-45.7-38.8-91.4-38.8s-45.7,38.8-91.4,38.8s-45.7-38.8-91.4-38.8
						s-45.7,38.8-91.4,38.8s-45.7-38.8-91.4-38.8S45.7,304.1,0,304.1v-25.9c45.7,0,45.7-19.4,91.4-19.4s45.7,19.4,91.4,19.4
						s45.7-19.4,91.4-19.4s45.7,19.4,91.4,19.4s45.7-19.4,91.4-19.4s45.7,19.4,91.4,19.4s45.7-19.4,91.4-19.4L640,265.3L640,265.3z"
						/>
					<path class="st0" d="M0,266.9c45.7,0,45.7-32.3,91.4-32.3s45.7,32.3,91.4,32.3s45.7-32.3,91.4-32.3s45.7,32.3,91.4,32.3
						s45.7-32.3,91.4-32.3s45.7,32.3,91.4,32.3s45.7-32.3,91.4-32.3v18.6c-45.7,0-45.7,19.4-91.4,19.4s-45.7-19.4-91.4-19.4
						s-45.7,19.4-91.4,19.4s-45.7-19.4-91.4-19.4s-45.7,19.4-91.4,19.4s-45.7-19.4-91.4-19.4S45.7,272.6,0,272.6V266.9L0,266.9z"/>
				</g>
				<g>
					<path class="st0" d="M640,321.6c-45.7,0-45.7,96.9-91.4,96.9s-45.7-96.9-91.4-96.9s-45.7,96.9-91.4,96.9s-45.7-96.9-91.4-96.9
						s-45.7,96.9-91.4,96.9s-45.7-96.9-91.4-96.9s-45.7,96.9-91.4,96.9v9.7c45.7,0,45.7-77.6,91.4-77.6s45.7,77.5,91.4,77.5
						s45.7-77.5,91.4-77.5s45.7,77.5,91.4,77.5s45.7-77.5,91.4-77.5s45.7,77.5,91.4,77.5s45.7-77.5,91.4-77.5V321.6L640,321.6z"/>
					<path class="st0" d="M640,359.1c-45.7,0-45.7,77.5-91.4,77.5s-45.7-77.5-91.4-77.5s-45.7,77.5-91.4,77.5s-45.7-77.5-91.4-77.5
						s-45.7,77.5-91.4,77.5s-45.7-77.5-91.4-77.5s-45.7,77.5-91.4,77.5v6.5c45.7,0,45.7-58.2,91.4-58.2s45.7,58.2,91.4,58.2
						s45.7-58.2,91.4-58.2s45.7,58.2,91.4,58.2s45.7-58.2,91.4-58.2s45.7,58.2,91.4,58.2s45.7-58.2,91.4-58.2V359.1z"/>
					<path class="st0" d="M640,394.1c-45.7,0-45.7,58.2-91.4,58.2s-45.7-58.2-91.4-58.2s-45.7,58.2-91.4,58.2s-45.7-58.2-91.4-58.2
						s-45.7,58.2-91.4,58.2s-45.7-58.2-91.4-58.2s-45.7,58.2-91.4,58.2v5.5c45.7,0,45.7-38.8,91.4-38.8s45.7,38.8,91.4,38.8
						s45.7-38.8,91.4-38.8s45.7,38.8,91.4,38.8s45.7-38.8,91.4-38.8s45.7,38.8,91.4,38.8S594.3,419,640,419V394.1z"/>
					<path class="st0" d="M0,464.8c45.7,0,45.7-38.8,91.4-38.8s45.7,38.8,91.4,38.8s45.7-38.8,91.4-38.8s45.7,38.8,91.4,38.8
						S411.3,426,457,426s45.7,38.8,91.4,38.8s45.7-38.8,91.4-38.8v25.9c-45.7,0-45.7,19.4-91.4,19.4s-45.7-19.4-91.4-19.4
						s-45.7,19.4-91.4,19.4s-45.7-19.4-91.4-19.4s-45.7,19.4-91.4,19.4s-45.7-19.4-91.4-19.4S45.7,471.3,0,471.3V464.8z"/>
					<path class="st0" d="M640,463.2c-45.7,0-45.7,32.3-91.4,32.3s-45.7-32.3-91.4-32.3s-45.7,32.3-91.4,32.3s-45.7-32.3-91.4-32.3
						s-45.7,32.3-91.4,32.3s-45.7-32.3-91.4-32.3S45.7,495.5,0,495.5V477c45.7,0,45.7-19.4,91.4-19.4s45.7,19.4,91.4,19.4
						s45.7-19.4,91.4-19.4s45.7,19.4,91.4,19.4s45.7-19.4,91.4-19.4s45.7,19.4,91.4,19.4s45.7-19.4,91.4-19.4L640,463.2L640,463.2z"
						/>
				</g>
			</g>
		</g>
	</g>
</g>
</svg>
