<?xml version="1.0" encoding="utf-8"?>
<!-- Generator: Adobe Illustrator 28.0.0, SVG Export Plug-In . SVG Version: 6.00 Build 0)  -->
<svg version="1.1" id="Capa_2_00000002364278043455029120000010672175315304185782_"
	 xmlns="http://www.w3.org/2000/svg" xmlns:xlink="http://www.w3.org/1999/xlink" x="0px" y="0px" viewBox="0 0 1280 495.5"
	 style="enable-background:new 0 0 1280 495.5;" xml:space="preserve">
<style type="text/css">
	.st0{fill:#FFEBE3;}
</style>
<g id="cuadricula">
	<g>
		<g>
			<g>
				<g>
					<path class="st0" d="M0,174C45.7,174,45.7,77,91.4,77c45.7,0,45.7,96.9,91.4,96.9S228.6,77,274.3,77S320,174,365.7,174
						S411.4,77,457.1,77c45.7,0,45.7,96.9,91.4,96.9C594.3,174,594.3,77,640,77v-9.7c-45.7,0-45.7,77.6-91.4,77.6
						c-45.7,0-45.7-77.6-91.4-77.6c-45.7,0-45.7,77.6-91.4,77.6S320,67.3,274.3,67.3s-45.7,77.6-91.4,77.6s-45.7-77.6-91.4-77.6
						c-45.7,0-45.7,77.6-91.4,77.6L0,174L0,174z"/>
					<path class="st0" d="M0,136.4c45.7,0,45.7-77.6,91.4-77.6c45.7,0,45.7,77.6,91.4,77.6s45.7-77.6,91.4-77.6
						c45.7,0,45.7,77.6,91.4,77.6s45.7-77.6,91.4-77.6c45.7,0,45.7,77.6,91.4,77.6c45.7,0,45.7-77.6,91.4-77.6v-6.5
						c-45.7,0-45.7,58.2-91.4,58.2s-45.7-58.2-91.4-58.2c-45.7,0-45.7,58.2-91.4,58.2S320,52.4,274.3,52.4s-45.7,58.2-91.4,58.2
						s-45.7-58.2-91.4-58.2c-45.7,0-45.7,58.2-91.4,58.2L0,136.4L0,136.4z"/>
					<path class="st0" d="M0,101.5c45.7,0,45.7-58.2,91.4-58.2c45.7,0,45.7,58.2,91.4,58.2s45.7-58.2,91.4-58.2s45.7,58.2,91.4,58.2
						c45.7,0,45.7-58.2,91.4-58.2c45.7,0,45.7,58.2,91.4,58.2c45.7,0,45.7-58.2,91.4-58.2v-5.5c-45.7,0-45.7,38.8-91.4,38.8
						s-45.7-38.8-91.4-38.8c-45.7,0-45.7,38.8-91.4,38.8S320,37.8,274.3,37.8s-45.7,38.8-91.4,38.8s-45.7-38.8-91.4-38.8
						C45.7,37.8,45.7,76.6,0,76.6L0,101.5L0,101.5z"/>
					<path class="st0" d="M640,30.7c-45.7,0-45.7,38.8-91.4,38.8c-45.7,0-45.7-38.8-91.4-38.8c-45.7,0-45.7,38.8-91.4,38.8
						S320,30.7,274.3,30.7s-45.7,38.8-91.4,38.8s-45.7-38.8-91.4-38.8C45.7,30.7,45.7,69.5,0,69.5V43.6c45.7,0,45.7-19.4,91.4-19.4
						c45.7,0,45.7,19.4,91.4,19.4s45.7-19.4,91.4-19.4s45.7,19.4,91.4,19.4s45.7-19.4,91.4-19.4c45.7,0,45.7,19.4,91.4,19.4
						c45.7,0,45.7-19.4,91.4-19.4V30.7L640,30.7z"/>
					<path class="st0" d="M0,32.3C45.7,32.3,45.7,0,91.4,0c45.7,0,45.7,32.3,91.4,32.3c45.7,0,45.7-32.3,91.4-32.3
						s45.7,32.3,91.4,32.3S411.4,0,457.1,0c45.7,0,45.7,32.3,91.4,32.3C594.3,32.3,594.3,0,640,0v18.5c-45.7,0-45.7,19.4-91.4,19.4
						c-45.7,0-45.7-19.4-91.4-19.4c-45.7,0-45.7,19.4-91.4,19.4S320,18.5,274.3,18.5s-45.7,19.4-91.4,19.4s-45.7-19.4-91.4-19.4
						C45.7,18.5,45.7,37.9,0,37.9L0,32.3L0,32.3z"/>
				</g>
				<g>
					<path class="st0" d="M640,87c-45.7,0-45.7,96.9-91.4,96.9S502.9,87,457.1,87s-45.7,96.9-91.4,96.9C320,183.9,320,87,274.3,87
						c-45.7,0-45.7,96.9-91.4,96.9c-45.7,0-45.7-96.9-91.4-96.9C45.7,87,45.7,183.9,0,183.9v9.7c45.7,0,45.7-77.6,91.4-77.6
						c45.7,0,45.7,77.6,91.4,77.6c45.7,0,45.7-77.6,91.4-77.6c45.7,0,45.7,77.6,91.4,77.6c45.7,0,45.7-77.6,91.4-77.6
						s45.7,77.6,91.4,77.6s45.7-77.6,91.4-77.6C640,116.1,640,87,640,87z"/>
					<path class="st0" d="M640,124.6c-45.7,0-45.7,77.6-91.4,77.6s-45.7-77.6-91.4-77.6s-45.7,77.6-91.4,77.6
						c-45.7,0-45.7-77.6-91.4-77.6c-45.7,0-45.7,77.6-91.4,77.6c-45.7,0-45.7-77.6-91.4-77.6c-45.7,0-45.7,77.6-91.4,77.6v6.5
						c45.7,0,45.7-58.2,91.4-58.2c45.7,0,45.7,58.2,91.4,58.2c45.7,0,45.7-58.2,91.4-58.2c45.7,0,45.7,58.2,91.4,58.2
						c45.7,0,45.7-58.2,91.4-58.2s45.7,58.2,91.4,58.2s45.7-58.2,91.4-58.2V124.6z"/>
					<path class="st0" d="M640,159.5c-45.7,0-45.7,58.2-91.4,58.2s-45.7-58.2-91.4-58.2s-45.7,58.2-91.4,58.2
						c-45.7,0-45.7-58.2-91.4-58.2c-45.7,0-45.7,58.2-91.4,58.2c-45.7,0-45.7-58.2-91.4-58.2c-45.7,0-45.7,58.2-91.4,58.2v5.5
						c45.7,0,45.7-38.8,91.4-38.8c45.7,0,45.7,38.8,91.4,38.8c45.7,0,45.7-38.8,91.4-38.8c45.7,0,45.7,38.8,91.4,38.8
						s45.7-38.8,91.4-38.8s45.7,38.8,91.4,38.8s45.7-38.8,91.4-38.8V159.5z"/>
					<path class="st0" d="M0,230.2c45.7,0,45.7-38.8,91.4-38.8c45.7,0,45.7,38.8,91.4,38.8c45.7,0,45.7-38.8,91.4-38.8
						c45.7,0,45.7,38.8,91.4,38.8c45.7,0,45.7-38.8,91.4-38.8s45.7,38.8,91.4,38.8s45.7-38.8,91.4-38.8v25.9
						c-45.7,0-45.7,19.4-91.4,19.4c-45.7,0-45.7-19.4-91.4-19.4s-45.7,19.4-91.4,19.4c-45.7,0-45.7-19.4-91.4-19.4
						c-45.7,0-45.7,19.4-91.4,19.4c-45.7,0-45.7-19.4-91.4-19.4c-45.7,0-45.7,19.4-91.4,19.4L0,230.2L0,230.2z"/>
					<path class="st0" d="M640,228.7c-45.7,0-45.7,32.3-91.4,32.3s-45.7-32.3-91.4-32.3S411.4,261,365.7,261
						c-45.7,0-45.7-32.3-91.4-32.3c-45.7,0-45.7,32.3-91.4,32.3c-45.7,0-45.7-32.3-91.4-32.3C45.7,228.7,45.7,261,0,261v-18.6
						c45.7,0,45.7-19.4,91.4-19.4c45.7,0,45.7,19.4,91.4,19.4c45.7,0,45.7-19.4,91.4-19.4c45.7,0,45.7,19.4,91.4,19.4
						s45.7-19.4,91.4-19.4s45.7,19.4,91.4,19.4c45.7,0,45.7-19.4,91.4-19.4V228.7L640,228.7z"/>
				</g>
			</g>
			<g>
				<g>
					<path class="st0" d="M0,408.5c45.7,0,45.7-96.9,91.4-96.9c45.7,0,45.7,96.9,91.4,96.9s45.7-96.9,91.4-96.9s45.7,96.9,91.4,96.9
						s45.7-96.9,91.4-96.9c45.7,0,45.7,96.9,91.4,96.9s45.7-96.9,91.4-96.9v-9.7c-45.7,0-45.7,77.6-91.4,77.6s-45.7-77.5-91.4-77.5
						c-45.7,0-45.7,77.5-91.4,77.5s-45.7-77.5-91.4-77.5s-45.7,77.5-91.4,77.5s-45.7-77.5-91.4-77.5c-45.7,0-45.7,77.5-91.4,77.5
						L0,408.5L0,408.5z"/>
					<path class="st0" d="M0,371c45.7,0,45.7-77.6,91.4-77.6c45.7,0,45.7,77.5,91.4,77.5s45.7-77.5,91.4-77.5S320,371,365.7,371
						s45.7-77.5,91.4-77.5c45.7,0,45.7,77.5,91.4,77.5s45.7-77.5,91.4-77.5v-6.5c-45.7,0-45.7,58.2-91.4,58.2s-45.7-58.2-91.4-58.2
						c-45.7,0-45.7,58.2-91.4,58.2s-45.7-58.2-91.4-58.2s-45.7,58.2-91.4,58.2s-45.7-58.2-91.4-58.2c-45.7,0-45.7,58.2-91.4,58.2
						L0,371L0,371z"/>
					<path class="st0" d="M0,336c45.7,0,45.7-58.2,91.4-58.2s45.7,58.2,91.4,58.2s45.7-58.2,91.4-58.2S320,336,365.7,336
						s45.7-58.2,91.4-58.2s45.7,58.2,91.4,58.2s45.7-58.2,91.4-58.2v-5.5c-45.7,0-45.7,38.8-91.4,38.8s-45.7-38.8-91.4-38.8
						c-45.7,0-45.7,38.8-91.4,38.8s-45.7-38.8-91.4-38.8s-45.7,38.8-91.4,38.8s-45.7-38.8-91.4-38.8c-45.7,0-45.7,38.8-91.4,38.8
						L0,336L0,336z"/>
					<path class="st0" d="M640,265.3c-45.7,0-45.7,38.8-91.4,38.8s-45.7-38.8-91.4-38.8s-45.7,38.8-91.4,38.8s-45.7-38.8-91.4-38.8
						s-45.7,38.8-91.4,38.8s-45.7-38.8-91.4-38.8S45.7,304.1,0,304.1v-25.9c45.7,0,45.7-19.4,91.4-19.4c45.7,0,45.7,19.4,91.4,19.4
						s45.7-19.4,91.4-19.4s45.7,19.4,91.4,19.4s45.7-19.4,91.4-19.4c45.7,0,45.7,19.4,91.4,19.4c45.7,0,45.7-19.4,91.4-19.4
						L640,265.3L640,265.3z"/>
					<path class="st0" d="M0,266.9c45.7,0,45.7-32.3,91.4-32.3c45.7,0,45.7,32.3,91.4,32.3s45.7-32.3,91.4-32.3s45.7,32.3,91.4,32.3
						s45.7-32.3,91.4-32.3c45.7,0,45.7,32.3,91.4,32.3c45.7,0,45.7-32.3,91.4-32.3v18.6c-45.7,0-45.7,19.4-91.4,19.4
						c-45.7,0-45.7-19.4-91.4-19.4s-45.7,19.4-91.4,19.4s-45.7-19.4-91.4-19.4c-45.7,0-45.7,19.4-91.4,19.4s-45.7-19.4-91.4-19.4
						c-45.7,0-45.7,19.4-91.4,19.4L0,266.9L0,266.9z"/>
				</g>
				<g>
					<path class="st0" d="M640,321.6c-45.7,0-45.7,96.9-91.4,96.9c-45.7,0-45.7-96.9-91.4-96.9s-45.7,96.9-91.4,96.9
						s-45.7-96.9-91.4-96.9c-45.7,0-45.7,96.9-91.4,96.9c-45.7,0-45.7-96.9-91.4-96.9c-45.7,0-45.7,96.9-91.4,96.9v9.7
						c45.7,0,45.7-77.6,91.4-77.6s45.7,77.5,91.4,77.5c45.7,0,45.7-77.5,91.4-77.5s45.7,77.5,91.4,77.5c45.7,0,45.7-77.5,91.4-77.5
						s45.7,77.5,91.4,77.5c45.7,0,45.7-77.5,91.4-77.5V321.6L640,321.6z"/>
					<path class="st0" d="M640,359.1c-45.7,0-45.7,77.5-91.4,77.5c-45.7,0-45.7-77.5-91.4-77.5s-45.7,77.5-91.4,77.5
						c-45.7,0-45.7-77.5-91.4-77.5c-45.7,0-45.7,77.5-91.4,77.5c-45.7,0-45.7-77.5-91.4-77.5c-45.7,0-45.7,77.5-91.4,77.5v6.5
						c45.7,0,45.7-58.2,91.4-58.2c45.7,0,45.7,58.2,91.4,58.2c45.7,0,45.7-58.2,91.4-58.2c45.7,0,45.7,58.2,91.4,58.2
						c45.7,0,45.7-58.2,91.4-58.2s45.7,58.2,91.4,58.2c45.7,0,45.7-58.2,91.4-58.2V359.1z"/>
					<path class="st0" d="M640,394.1c-45.7,0-45.7,58.2-91.4,58.2c-45.7,0-45.7-58.2-91.4-58.2s-45.7,58.2-91.4,58.2
						s-45.7-58.2-91.4-58.2c-45.7,0-45.7,58.2-91.4,58.2c-45.7,0-45.7-58.2-91.4-58.2c-45.7,0-45.7,58.2-91.4,58.2v5.5
						c45.7,0,45.7-38.8,91.4-38.8c45.7,0,45.7,38.8,91.4,38.8c45.7,0,45.7-38.8,91.4-38.8c45.7,0,45.7,38.8,91.4,38.8
						c45.7,0,45.7-38.8,91.4-38.8s45.7,38.8,91.4,38.8c45.7,0,45.7-38.8,91.4-38.8V394.1z"/>
					<path class="st0" d="M0,464.8c45.7,0,45.7-38.8,91.4-38.8c45.7,0,45.7,38.8,91.4,38.8c45.7,0,45.7-38.8,91.4-38.8
						c45.7,0,45.7,38.8,91.4,38.8c45.7,0,45.7-38.8,91.4-38.8s45.7,38.8,91.4,38.8c45.7,0,45.7-38.8,91.4-38.8v25.9
						c-45.7,0-45.7,19.4-91.4,19.4c-45.7,0-45.7-19.4-91.4-19.4s-45.7,19.4-91.4,19.4c-45.7,0-45.7-19.4-91.4-19.4
						s-45.7,19.4-91.4,19.4c-45.7,0-45.7-19.4-91.4-19.4S45.7,471.3,0,471.3V464.8z"/>
					<path class="st0" d="M640,463.2c-45.7,0-45.7,32.3-91.4,32.3c-45.7,0-45.7-32.3-91.4-32.3s-45.7,32.3-91.4,32.3
						c-45.7,0-45.7-32.3-91.4-32.3s-45.7,32.3-91.4,32.3c-45.7,0-45.7-32.3-91.4-32.3S45.7,495.5,0,495.5V477
						c45.7,0,45.7-19.4,91.4-19.4c45.7,0,45.7,19.4,91.4,19.4c45.7,0,45.7-19.4,91.4-19.4c45.7,0,45.7,19.4,91.4,19.4
						c45.7,0,45.7-19.4,91.4-19.4s45.7,19.4,91.4,19.4c45.7,0,45.7-19.4,91.4-19.4L640,463.2L640,463.2z"/>
				</g>
			</g>
		</g>
		<g>
			<g>
				<g>
					<path class="st0" d="M1280,174c-45.7,0-45.7-96.9-91.4-96.9s-45.7,96.9-91.4,96.9c-45.7,0-45.7-96.9-91.4-96.9
						S960,174,914.3,174c-45.7,0-45.7-96.9-91.4-96.9c-45.7,0-45.7,96.9-91.4,96.9S685.7,77,640,77v-9.7c45.7,0,45.7,77.6,91.4,77.6
						s45.7-77.6,91.4-77.6c45.7,0,45.7,77.6,91.4,77.6c45.7,0,45.7-77.6,91.4-77.6c45.7,0,45.7,77.6,91.4,77.6s45.7-77.6,91.4-77.6
						s45.7,77.6,91.4,77.6V174z"/>
					<path class="st0" d="M1280,136.4c-45.7,0-45.7-77.6-91.4-77.6s-45.7,77.6-91.4,77.6c-45.7,0-45.7-77.6-91.4-77.6
						c-45.7,0-45.7,77.6-91.4,77.6c-45.7,0-45.7-77.6-91.4-77.6c-45.7,0-45.7,77.6-91.4,77.6S685.7,58.9,640,58.9v-6.5
						c45.7,0,45.7,58.2,91.4,58.2c45.7,0,45.7-58.2,91.4-58.2c45.7,0,45.7,58.2,91.4,58.2c45.7,0,45.7-58.2,91.4-58.2
						c45.7,0,45.7,58.2,91.4,58.2s45.7-58.2,91.4-58.2s45.7,58.2,91.4,58.2V136.4z"/>
					<path class="st0" d="M1280,101.5c-45.7,0-45.7-58.2-91.4-58.2s-45.7,58.2-91.4,58.2c-45.7,0-45.7-58.2-91.4-58.2
						s-45.7,58.2-91.4,58.2s-45.7-58.2-91.4-58.2c-45.7,0-45.7,58.2-91.4,58.2c-45.7,0-45.7-58.2-91.4-58.2v-5.5
						c45.7,0,45.7,38.8,91.4,38.8c45.7,0,45.7-38.8,91.4-38.8c45.7,0,45.7,38.8,91.4,38.8c45.7,0,45.7-38.8,91.4-38.8
						c45.7,0,45.7,38.8,91.4,38.8s45.7-38.8,91.4-38.8s45.7,38.8,91.4,38.8V101.5z"/>
					<path class="st0" d="M640,30.7c45.7,0,45.7,38.8,91.4,38.8s45.7-38.8,91.4-38.8c45.7,0,45.7,38.8,91.4,38.8
						c45.7,0,45.7-38.8,91.4-38.8s45.7,38.8,91.4,38.8c45.7,0,45.7-38.8,91.4-38.8s45.7,38.8,91.4,38.8V43.6
						c-45.7,0-45.7-19.4-91.4-19.4s-45.7,19.4-91.4,19.4c-45.7,0-45.7-19.4-91.4-19.4S960,43.6,914.3,43.6
						c-45.7,0-45.7-19.4-91.4-19.4c-45.7,0-45.7,19.4-91.4,19.4S685.7,24.2,640,24.2L640,30.7L640,30.7z"/>
					<path class="st0" d="M1280,32.3c-45.7,0-45.7-32.3-91.4-32.3s-45.7,32.3-91.4,32.3c-45.7,0-45.7-32.3-91.4-32.3
						S960,32.3,914.3,32.3C868.6,32.3,868.6,0,822.8,0c-45.7,0-45.7,32.3-91.4,32.3C685.7,32.3,685.7,0,640,0v18.5
						c45.7,0,45.7,19.4,91.4,19.4s45.7-19.4,91.4-19.4c45.7,0,45.7,19.4,91.4,19.4c45.7,0,45.7-19.4,91.4-19.4s45.7,19.4,91.4,19.4
						c45.7,0,45.7-19.4,91.4-19.4s45.7,19.4,91.4,19.4L1280,32.3L1280,32.3z"/>
				</g>
				<g>
					<path class="st0" d="M640,87c45.7,0,45.7,96.9,91.4,96.9c45.7,0,45.7-96.9,91.4-96.9c45.7,0,45.7,96.9,91.4,96.9
						S960,87,1005.7,87c45.7,0,45.7,96.9,91.4,96.9c45.7,0,45.7-96.9,91.4-96.9c45.7,0,45.7,96.9,91.4,96.9v9.7
						c-45.7,0-45.7-77.6-91.4-77.6c-45.7,0-45.7,77.6-91.4,77.6c-45.7,0-45.7-77.6-91.4-77.6c-45.7,0-45.7,77.6-91.4,77.6
						s-45.7-77.6-91.4-77.6c-45.7,0-45.7,77.6-91.4,77.6c-45.7,0-45.7-77.6-91.4-77.6L640,87L640,87z"/>
					<path class="st0" d="M640,124.6c45.7,0,45.7,77.6,91.4,77.6c45.7,0,45.7-77.6,91.4-77.6c45.7,0,45.7,77.6,91.4,77.6
						s45.7-77.6,91.4-77.6c45.7,0,45.7,77.6,91.4,77.6c45.7,0,45.7-77.6,91.4-77.6c45.7,0,45.7,77.6,91.4,77.6v6.5
						c-45.7,0-45.7-58.2-91.4-58.2c-45.7,0-45.7,58.2-91.4,58.2c-45.7,0-45.7-58.2-91.4-58.2c-45.7,0-45.7,58.2-91.4,58.2
						s-45.7-58.2-91.4-58.2c-45.7,0-45.7,58.2-91.4,58.2c-45.7,0-45.7-58.2-91.4-58.2L640,124.6L640,124.6z"/>
					<path class="st0" d="M640,159.5c45.7,0,45.7,58.2,91.4,58.2c45.7,0,45.7-58.2,91.4-58.2c45.7,0,45.7,58.2,91.4,58.2
						s45.7-58.2,91.4-58.2c45.7,0,45.7,58.2,91.4,58.2c45.7,0,45.7-58.2,91.4-58.2c45.7,0,45.7,58.2,91.4,58.2v5.5
						c-45.7,0-45.7-38.8-91.4-38.8c-45.7,0-45.7,38.8-91.4,38.8c-45.7,0-45.7-38.8-91.4-38.8c-45.7,0-45.7,38.8-91.4,38.8
						c-45.7,0-45.7-38.8-91.4-38.8c-45.7,0-45.7,38.8-91.4,38.8c-45.7,0-45.7-38.8-91.4-38.8L640,159.5L640,159.5z"/>
					<path class="st0" d="M1280,230.2c-45.7,0-45.7-38.8-91.4-38.8c-45.7,0-45.7,38.8-91.4,38.8c-45.7,0-45.7-38.8-91.4-38.8
						c-45.7,0-45.7,38.8-91.4,38.8s-45.7-38.8-91.4-38.8c-45.7,0-45.7,38.8-91.4,38.8c-45.7,0-45.7-38.8-91.4-38.8v25.9
						c45.7,0,45.7,19.4,91.4,19.4s45.7-19.4,91.4-19.4s45.7,19.4,91.4,19.4s45.7-19.4,91.4-19.4c45.7,0,45.7,19.4,91.4,19.4
						c45.7,0,45.7-19.4,91.4-19.4c45.7,0,45.7,19.4,91.4,19.4V230.2L1280,230.2z"/>
					<path class="st0" d="M640,228.7c45.7,0,45.7,32.3,91.4,32.3c45.7,0,45.7-32.3,91.4-32.3c45.7,0,45.7,32.3,91.4,32.3
						c45.7,0,45.7-32.3,91.4-32.3c45.7,0,45.7,32.3,91.4,32.3c45.7,0,45.7-32.3,91.4-32.3c45.7,0,45.7,32.3,91.4,32.3v-18.6
						c-45.7,0-45.7-19.4-91.4-19.4c-45.7,0-45.7,19.4-91.4,19.4c-45.7,0-45.7-19.4-91.4-19.4c-45.7,0-45.7,19.4-91.4,19.4
						c-45.7,0-45.7-19.4-91.4-19.4c-45.7,0-45.7,19.4-91.4,19.4c-45.7,0-45.7-19.4-91.4-19.4L640,228.7L640,228.7z"/>
				</g>
			</g>
			<g>
				<g>
					<path class="st0" d="M1280,408.5c-45.7,0-45.7-96.9-91.4-96.9c-45.7,0-45.7,96.9-91.4,96.9c-45.7,0-45.7-96.9-91.4-96.9
						s-45.7,96.9-91.4,96.9c-45.7,0-45.7-96.9-91.4-96.9c-45.7,0-45.7,96.9-91.4,96.9s-45.7-96.9-91.4-96.9v-9.7
						c45.7,0,45.7,77.6,91.4,77.6s45.7-77.5,91.4-77.5c45.7,0,45.7,77.5,91.4,77.5c45.7,0,45.7-77.5,91.4-77.5
						c45.7,0,45.7,77.5,91.4,77.5s45.7-77.5,91.4-77.5c45.7,0,45.7,77.5,91.4,77.5V408.5L1280,408.5z"/>
					<path class="st0" d="M1280,371c-45.7,0-45.7-77.6-91.4-77.6c-45.7,0-45.7,77.5-91.4,77.5c-45.7,0-45.7-77.5-91.4-77.5
						S960,371,914.3,371c-45.7,0-45.7-77.5-91.4-77.5c-45.7,0-45.7,77.5-91.4,77.5s-45.7-77.5-91.4-77.5v-6.5
						c45.7,0,45.7,58.2,91.4,58.2s45.7-58.2,91.4-58.2c45.7,0,45.7,58.2,91.4,58.2c45.7,0,45.7-58.2,91.4-58.2
						c45.7,0,45.7,58.2,91.4,58.2s45.7-58.2,91.4-58.2c45.7,0,45.7,58.2,91.4,58.2V371L1280,371z"/>
					<path class="st0" d="M1280,336c-45.7,0-45.7-58.2-91.4-58.2c-45.7,0-45.7,58.2-91.4,58.2c-45.7,0-45.7-58.2-91.4-58.2
						S960,336,914.3,336c-45.7,0-45.7-58.2-91.4-58.2c-45.7,0-45.7,58.2-91.4,58.2s-45.7-58.2-91.4-58.2v-5.5
						c45.7,0,45.7,38.8,91.4,38.8s45.7-38.8,91.4-38.8c45.7,0,45.7,38.8,91.4,38.8c45.7,0,45.7-38.8,91.4-38.8
						c45.7,0,45.7,38.8,91.4,38.8s45.7-38.8,91.4-38.8c45.7,0,45.7,38.8,91.4,38.8V336z"/>
					<path class="st0" d="M640,265.3c45.7,0,45.7,38.8,91.4,38.8s45.7-38.8,91.4-38.8c45.7,0,45.7,38.8,91.4,38.8
						c45.7,0,45.7-38.8,91.4-38.8s45.7,38.8,91.4,38.8c45.7,0,45.7-38.8,91.4-38.8c45.7,0,45.7,38.8,91.4,38.8v-25.9
						c-45.7,0-45.7-19.4-91.4-19.4c-45.7,0-45.7,19.4-91.4,19.4c-45.7,0-45.7-19.4-91.4-19.4s-45.7,19.4-91.4,19.4
						c-45.7,0-45.7-19.4-91.4-19.4c-45.7,0-45.7,19.4-91.4,19.4c-45.7,0-45.7-19.4-91.4-19.4L640,265.3L640,265.3z"/>
					<path class="st0" d="M1280,266.9c-45.7,0-45.7-32.3-91.4-32.3s-45.7,32.3-91.4,32.3c-45.7,0-45.7-32.3-91.4-32.3
						s-45.7,32.3-91.4,32.3c-45.7,0-45.7-32.3-91.4-32.3c-45.7,0-45.7,32.3-91.4,32.3c-45.7,0-45.7-32.3-91.4-32.3v18.6
						c45.7,0,45.7,19.4,91.4,19.4c45.7,0,45.7-19.4,91.4-19.4c45.7,0,45.7,19.4,91.4,19.4c45.7,0,45.7-19.4,91.4-19.4
						c45.7,0,45.7,19.4,91.4,19.4s45.7-19.4,91.4-19.4c45.7,0,45.7,19.4,91.4,19.4V266.9L1280,266.9z"/>
				</g>
				<g>
					<path class="st0" d="M640,321.6c45.7,0,45.7,96.9,91.4,96.9s45.7-96.9,91.4-96.9c45.7,0,45.7,96.9,91.4,96.9
						c45.7,0,45.7-96.9,91.4-96.9s45.7,96.9,91.4,96.9c45.7,0,45.7-96.9,91.4-96.9c45.7,0,45.7,96.9,91.4,96.9v9.7
						c-45.7,0-45.7-77.6-91.4-77.6c-45.7,0-45.7,77.5-91.4,77.5c-45.7,0-45.7-77.5-91.4-77.5c-45.7,0-45.7,77.5-91.4,77.5
						c-45.7,0-45.7-77.5-91.4-77.5c-45.7,0-45.7,77.5-91.4,77.5c-45.7,0-45.7-77.5-91.4-77.5L640,321.6L640,321.6z"/>
					<path class="st0" d="M640,359.1c45.7,0,45.7,77.5,91.4,77.5c45.7,0,45.7-77.5,91.4-77.5c45.7,0,45.7,77.5,91.4,77.5
						c45.7,0,45.7-77.5,91.4-77.5s45.7,77.5,91.4,77.5c45.7,0,45.7-77.5,91.4-77.5c45.7,0,45.7,77.5,91.4,77.5v6.5
						c-45.7,0-45.7-58.2-91.4-58.2c-45.7,0-45.7,58.2-91.4,58.2c-45.7,0-45.7-58.2-91.4-58.2s-45.7,58.2-91.4,58.2
						c-45.7,0-45.7-58.2-91.4-58.2c-45.7,0-45.7,58.2-91.4,58.2c-45.7,0-45.7-58.2-91.4-58.2L640,359.1L640,359.1z"/>
					<path class="st0" d="M640,394.1c45.7,0,45.7,58.2,91.4,58.2s45.7-58.2,91.4-58.2c45.7,0,45.7,58.2,91.4,58.2
						c45.7,0,45.7-58.2,91.4-58.2s45.7,58.2,91.4,58.2c45.7,0,45.7-58.2,91.4-58.2c45.7,0,45.7,58.2,91.4,58.2v5.5
						c-45.7,0-45.7-38.8-91.4-38.8c-45.7,0-45.7,38.8-91.4,38.8c-45.7,0-45.7-38.8-91.4-38.8s-45.7,38.8-91.4,38.8
						c-45.7,0-45.7-38.8-91.4-38.8c-45.7,0-45.7,38.8-91.4,38.8c-45.7,0-45.7-38.8-91.4-38.8L640,394.1L640,394.1z"/>
					<path class="st0" d="M1280,464.8c-45.7,0-45.7-38.8-91.4-38.8c-45.7,0-45.7,38.8-91.4,38.8c-45.7,0-45.7-38.8-91.4-38.8
						s-45.7,38.8-91.4,38.8c-45.7,0-45.7-38.8-91.4-38.8c-45.7,0-45.7,38.8-91.4,38.8c-45.7,0-45.7-38.8-91.4-38.8v25.9
						c45.7,0,45.7,19.4,91.4,19.4c45.7,0,45.7-19.4,91.4-19.4s45.7,19.4,91.4,19.4c45.7,0,45.7-19.4,91.4-19.4
						c45.7,0,45.7,19.4,91.4,19.4c45.7,0,45.7-19.4,91.4-19.4c45.7,0,45.7,19.4,91.4,19.4V464.8L1280,464.8z"/>
					<path class="st0" d="M640,463.2c45.7,0,45.7,32.3,91.4,32.3s45.7-32.3,91.4-32.3c45.7,0,45.7,32.3,91.4,32.3
						c45.7,0,45.7-32.3,91.4-32.3c45.7,0,45.7,32.3,91.4,32.3c45.7,0,45.7-32.3,91.4-32.3c45.7,0,45.7,32.3,91.4,32.3V477
						c-45.7,0-45.7-19.4-91.4-19.4c-45.7,0-45.7,19.4-91.4,19.4c-45.7,0-45.7-19.4-91.4-19.4S960,477,914.3,477
						c-45.7,0-45.7-19.4-91.4-19.4c-45.7,0-45.7,19.4-91.4,19.4c-45.7,0-45.7-19.4-91.4-19.4L640,463.2L640,463.2z"/>
				</g>
			</g>
		</g>
	</g>
</g>
</svg>
