<?xml version="1.0" encoding="utf-8"?>
<!-- Generator: Adobe Illustrator 19.2.0, SVG Export Plug-In . SVG Version: 6.00 Build 0)  -->
<svg version="1.1" id="Layer_1" xmlns="http://www.w3.org/2000/svg" xmlns:xlink="http://www.w3.org/1999/xlink" x="0px" y="0px"
	 viewBox="0 0 800 235.3" style="enable-background:new 0 0 800 235.3;" xml:space="preserve">
<style type="text/css">
	.st0{fill:#EA2127;}
</style>
<g>
	<g>
		<path class="st0" d="M82,98c0,5.4-0.9,10.4-2.8,15c-1.9,4.6-4.5,8.5-7.9,11.9c-3.4,3.3-7.5,5.9-12.2,7.8
			c-4.8,1.9-10.1,2.8-15.9,2.8H14.2V60.7h29.1c5.8,0,11.1,0.9,15.9,2.8c4.8,1.9,8.9,4.5,12.2,7.8c3.4,3.3,6,7.3,7.9,11.8
			C81.1,87.7,82,92.7,82,98z M64.3,98c0-3.7-0.5-7-1.4-10c-1-3-2.3-5.5-4.1-7.6c-1.8-2.1-4-3.7-6.6-4.8c-2.6-1.1-5.6-1.7-8.9-1.7
			H31.6v48.1h11.6c3.3,0,6.3-0.6,8.9-1.7c2.6-1.1,4.8-2.7,6.6-4.8c1.8-2.1,3.2-4.6,4.1-7.6C63.8,105.1,64.3,101.8,64.3,98z"/>
		<path class="st0" d="M109.3,135.5H91.9V60.7h17.5V135.5z"/>
		<path class="st0" d="M171.4,60.7V74h-30.7v17.5h23.5v12.8h-23.5v17.8h30.7v13.3h-48.2V60.7H171.4z"/>
		<path class="st0" d="M222.9,75.9c-0.5,0.8-1.1,1.4-1.6,1.8s-1.3,0.6-2.2,0.6c-0.8,0-1.6-0.2-2.5-0.7c-0.9-0.5-1.9-1.1-3.1-1.7
			c-1.1-0.6-2.5-1.2-3.9-1.7c-1.5-0.5-3.1-0.7-5-0.7c-3.3,0-5.7,0.7-7.3,2.1c-1.6,1.4-2.4,3.3-2.4,5.6c0,1.5,0.5,2.8,1.4,3.7
			c1,1,2.2,1.8,3.8,2.6c1.6,0.7,3.3,1.4,5.3,2c2,0.6,4,1.3,6.1,2c2.1,0.7,4.1,1.6,6.1,2.6c2,1,3.8,2.3,5.3,3.8
			c1.6,1.5,2.8,3.4,3.8,5.6c1,2.2,1.4,4.9,1.4,8c0,3.5-0.6,6.7-1.8,9.7c-1.2,3-2.9,5.6-5.2,7.9c-2.3,2.2-5.1,4-8.4,5.3
			c-3.3,1.3-7.1,1.9-11.4,1.9c-2.3,0-4.7-0.2-7.1-0.7c-2.4-0.5-4.7-1.2-7-2c-2.3-0.9-4.4-1.9-6.4-3.1c-2-1.2-3.7-2.5-5.2-4l5.1-8.1
			c0.4-0.6,0.9-1.1,1.6-1.5c0.7-0.4,1.4-0.6,2.2-0.6c1,0,2.1,0.3,3.1,1c1,0.7,2.2,1.4,3.5,2.2c1.3,0.8,2.8,1.5,4.5,2.2
			c1.7,0.7,3.7,1,6.1,1c3.1,0,5.6-0.7,7.3-2.1c1.7-1.4,2.6-3.6,2.6-6.6c0-1.7-0.5-3.2-1.4-4.3c-1-1.1-2.2-2-3.8-2.7
			c-1.6-0.7-3.3-1.4-5.3-1.9c-2-0.5-4-1.2-6.1-1.8c-2.1-0.7-4.1-1.5-6.1-2.5c-2-1-3.8-2.3-5.3-3.9c-1.6-1.6-2.8-3.6-3.8-6
			c-1-2.4-1.4-5.3-1.4-8.8c0-2.8,0.6-5.5,1.7-8.2c1.1-2.7,2.8-5,5-7.1c2.2-2.1,4.9-3.8,8.1-5c3.2-1.2,6.8-1.9,10.9-1.9
			c2.3,0,4.5,0.2,6.7,0.5c2.2,0.4,4.2,0.9,6.2,1.6c2,0.7,3.8,1.5,5.5,2.5c1.7,1,3.2,2.1,4.5,3.3L222.9,75.9z"/>
		<path class="st0" d="M285,60.7V74h-30.7v17.5h23.5v12.8h-23.5v17.8H285v13.3h-48.2V60.7H285z"/>
		<path class="st0" d="M312.2,121.6H340v13.9h-45.1V60.7h17.4V121.6z"/>
		<path class="st0" d="M388.4,105.3c0.6,1.4,1.2,2.8,1.8,4.3c0.6-1.5,1.2-3,1.8-4.4c0.6-1.4,1.3-2.8,2-4.1l19.2-37.8
			c0.3-0.7,0.7-1.2,1.1-1.5s0.8-0.6,1.2-0.8c0.4-0.2,0.9-0.3,1.5-0.3s1.2,0,2,0h13.2v74.8H417v-43c0-2.1,0.1-4.3,0.3-6.8l-19.8,38.5
			c-0.6,1.2-1.4,2.1-2.5,2.7c-1,0.6-2.2,0.9-3.6,0.9H389c-1.3,0-2.5-0.3-3.6-0.9c-1-0.6-1.9-1.5-2.5-2.7l-19.9-38.5
			c0.1,1.2,0.2,2.4,0.3,3.6c0.1,1.2,0.1,2.3,0.1,3.3v43h-15.3V60.7h13.2c0.8,0,1.4,0,2,0c0.6,0,1.1,0.1,1.5,0.3
			c0.4,0.2,0.8,0.4,1.2,0.8s0.7,0.9,1.1,1.5l19.3,38C387.1,102.6,387.8,103.9,388.4,105.3z"/>
		<path class="st0" d="M518.4,98c0,5.4-0.9,10.4-2.8,15.1s-4.5,8.7-7.9,12.1c-3.4,3.4-7.5,6.1-12.2,8.1c-4.8,2-10.1,2.9-15.9,2.9
			c-5.8,0-11.1-1-15.9-2.9c-4.8-2-8.9-4.6-12.3-8.1c-3.4-3.4-6-7.5-7.9-12.1s-2.8-9.7-2.8-15.1c0-5.4,0.9-10.4,2.8-15.1
			c1.9-4.7,4.5-8.7,7.9-12.1c3.4-3.4,7.5-6.1,12.3-8.1c4.8-2,10.1-2.9,15.9-2.9c5.8,0,11.1,1,15.9,3c4.8,2,8.9,4.7,12.2,8.1
			c3.4,3.4,6,7.5,7.9,12.1C517.5,87.7,518.4,92.7,518.4,98z M500.7,98c0-3.7-0.5-7-1.4-10c-1-3-2.3-5.5-4.1-7.5s-4-3.6-6.6-4.7
			c-2.6-1.1-5.6-1.6-8.9-1.6c-3.4,0-6.3,0.5-9,1.6c-2.6,1.1-4.8,2.7-6.6,4.7s-3.2,4.6-4.1,7.5c-1,3-1.4,6.3-1.4,10
			c0,3.7,0.5,7.1,1.4,10c1,3,2.3,5.5,4.1,7.5c1.8,2.1,4,3.6,6.6,4.7c2.6,1.1,5.6,1.6,9,1.6c3.3,0,6.3-0.5,8.9-1.6
			c2.6-1.1,4.8-2.6,6.6-4.7c1.8-2.1,3.2-4.6,4.1-7.5C500.2,105.1,500.7,101.8,500.7,98z"/>
		<path class="st0" d="M578,60.7v13.8h-21v61h-17.4v-61h-21V60.7H578z"/>
		<path class="st0" d="M655.9,98c0,5.4-0.9,10.4-2.8,15.1s-4.5,8.7-7.9,12.1c-3.4,3.4-7.5,6.1-12.2,8.1c-4.8,2-10.1,2.9-15.9,2.9
			c-5.8,0-11.1-1-15.9-2.9c-4.8-2-8.9-4.6-12.3-8.1c-3.4-3.4-6-7.5-7.9-12.1s-2.8-9.7-2.8-15.1c0-5.4,0.9-10.4,2.8-15.1
			c1.9-4.7,4.5-8.7,7.9-12.1c3.4-3.4,7.5-6.1,12.3-8.1c4.8-2,10.1-2.9,15.9-2.9c5.8,0,11.1,1,15.9,3c4.8,2,8.9,4.7,12.2,8.1
			c3.4,3.4,6,7.5,7.9,12.1C655,87.7,655.9,92.7,655.9,98z M638.1,98c0-3.7-0.5-7-1.4-10c-1-3-2.3-5.5-4.1-7.5s-4-3.6-6.6-4.7
			c-2.6-1.1-5.6-1.6-8.9-1.6c-3.4,0-6.3,0.5-9,1.6c-2.6,1.1-4.8,2.7-6.6,4.7s-3.2,4.6-4.1,7.5c-1,3-1.4,6.3-1.4,10
			c0,3.7,0.5,7.1,1.4,10c1,3,2.3,5.5,4.1,7.5c1.8,2.1,4,3.6,6.6,4.7c2.6,1.1,5.6,1.6,9,1.6c3.3,0,6.3-0.5,8.9-1.6
			c2.6-1.1,4.8-2.6,6.6-4.7c1.8-2.1,3.2-4.6,4.1-7.5C637.7,105.1,638.1,101.8,638.1,98z"/>
		<path class="st0" d="M681.6,107.8v27.7h-17.4V60.7h24.3c5.4,0,10,0.6,13.8,1.7c3.8,1.1,6.9,2.7,9.3,4.6c2.4,2,4.2,4.3,5.3,7
			c1.1,2.7,1.6,5.6,1.6,8.8c0,2.4-0.3,4.7-1,6.9s-1.6,4.2-2.9,6c-1.3,1.8-2.9,3.5-4.7,4.9c-1.9,1.4-4,2.6-6.4,3.5
			c1.2,0.6,2.2,1.3,3.3,2.2c1,0.9,1.9,1.9,2.6,3.1l15.9,26h-15.7c-2.9,0-5-1.1-6.3-3.3L691,110.5c-0.5-1-1.2-1.6-1.9-2.1
			s-1.8-0.6-3.1-0.6H681.6z M681.6,95.8h7c2.4,0,4.4-0.3,6-0.9c1.7-0.6,3-1.4,4.1-2.5c1.1-1.1,1.8-2.3,2.3-3.7
			c0.5-1.4,0.7-3,0.7-4.6c0-3.3-1.1-5.9-3.2-7.7c-2.1-1.8-5.5-2.8-9.9-2.8h-7V95.8z"/>
		<path class="st0" d="M774.2,75.9c-0.5,0.8-1.1,1.4-1.6,1.8s-1.3,0.6-2.2,0.6c-0.8,0-1.6-0.2-2.5-0.7c-0.9-0.5-1.9-1.1-3.1-1.7
			c-1.1-0.6-2.5-1.2-3.9-1.7c-1.5-0.5-3.1-0.7-5-0.7c-3.3,0-5.7,0.7-7.3,2.1s-2.4,3.3-2.4,5.6c0,1.5,0.5,2.8,1.4,3.7
			c1,1,2.2,1.8,3.8,2.6s3.3,1.4,5.3,2c2,0.6,4,1.3,6.1,2c2.1,0.7,4.1,1.6,6.1,2.6c2,1,3.8,2.3,5.3,3.8c1.6,1.5,2.8,3.4,3.8,5.6
			c1,2.2,1.4,4.9,1.4,8c0,3.5-0.6,6.7-1.8,9.7c-1.2,3-2.9,5.6-5.2,7.9c-2.3,2.2-5.1,4-8.4,5.3c-3.3,1.3-7.1,1.9-11.4,1.9
			c-2.3,0-4.7-0.2-7.1-0.7c-2.4-0.5-4.7-1.2-7-2c-2.3-0.9-4.4-1.9-6.4-3.1c-2-1.2-3.7-2.5-5.2-4l5.1-8.1c0.4-0.6,0.9-1.1,1.6-1.5
			c0.7-0.4,1.4-0.6,2.2-0.6c1,0,2.1,0.3,3.1,1c1,0.7,2.2,1.4,3.5,2.2c1.3,0.8,2.8,1.5,4.5,2.2c1.7,0.7,3.7,1,6.1,1
			c3.1,0,5.6-0.7,7.3-2.1c1.7-1.4,2.6-3.6,2.6-6.6c0-1.7-0.5-3.2-1.4-4.3c-1-1.1-2.2-2-3.8-2.7s-3.3-1.4-5.3-1.9
			c-2-0.5-4-1.2-6.1-1.8c-2.1-0.7-4.1-1.5-6.1-2.5c-2-1-3.8-2.3-5.3-3.9c-1.6-1.6-2.8-3.6-3.8-6c-1-2.4-1.4-5.3-1.4-8.8
			c0-2.8,0.6-5.5,1.7-8.2c1.1-2.7,2.8-5,5-7.1c2.2-2.1,4.9-3.8,8.1-5c3.2-1.2,6.8-1.9,10.9-1.9c2.3,0,4.5,0.2,6.7,0.5
			s4.2,0.9,6.2,1.6c2,0.7,3.8,1.5,5.5,2.5c1.7,1,3.2,2.1,4.5,3.3L774.2,75.9z"/>
	</g>
	<g>
		<path class="st0" d="M411.3,177c0.2,0,0.4,0.1,0.5,0.2l1.3,1.4c-1,1.2-2.3,2.1-3.7,2.8c-1.5,0.7-3.2,1-5.3,1
			c-1.8,0-3.4-0.3-4.9-0.9c-1.5-0.6-2.7-1.5-3.7-2.6c-1-1.1-1.8-2.5-2.4-4c-0.6-1.6-0.9-3.3-0.9-5.2c0-1.9,0.3-3.6,0.9-5.2
			s1.5-2.9,2.6-4c1.1-1.1,2.4-2,4-2.6c1.5-0.6,3.2-0.9,5.1-0.9c1.8,0,3.4,0.3,4.8,0.9c1.3,0.6,2.5,1.3,3.5,2.3l-1.1,1.6
			c-0.1,0.1-0.2,0.2-0.3,0.3c-0.1,0.1-0.3,0.1-0.5,0.1c-0.2,0-0.3-0.1-0.5-0.2c-0.2-0.1-0.4-0.2-0.6-0.4c-0.2-0.2-0.5-0.3-0.8-0.5
			c-0.3-0.2-0.7-0.4-1.1-0.5c-0.4-0.2-0.9-0.3-1.5-0.4c-0.6-0.1-1.2-0.2-2-0.2c-1.3,0-2.6,0.2-3.7,0.7c-1.1,0.5-2.1,1.1-2.9,2
			c-0.8,0.8-1.4,1.9-1.9,3.1c-0.4,1.2-0.7,2.6-0.7,4.1c0,1.6,0.2,2.9,0.7,4.2c0.4,1.2,1.1,2.3,1.8,3.1s1.7,1.5,2.7,1.9
			c1.1,0.4,2.2,0.7,3.4,0.7c0.7,0,1.4,0,2-0.1c0.6-0.1,1.1-0.2,1.6-0.4c0.5-0.2,1-0.4,1.4-0.7c0.4-0.3,0.9-0.6,1.3-1
			C410.9,177.1,411.1,177,411.3,177z"/>
		<path class="st0" d="M468.7,169.7c0,1.9-0.3,3.6-0.9,5.2c-0.6,1.6-1.4,2.9-2.5,4c-1.1,1.1-2.4,2-3.9,2.6c-1.5,0.6-3.2,0.9-5,0.9
			c-1.8,0-3.5-0.3-5-0.9c-1.5-0.6-2.8-1.5-3.9-2.6c-1.1-1.1-1.9-2.5-2.5-4c-0.6-1.6-0.9-3.3-0.9-5.2c0-1.9,0.3-3.6,0.9-5.2
			c0.6-1.6,1.4-2.9,2.5-4c1.1-1.1,2.4-2,3.9-2.6c1.5-0.6,3.2-0.9,5-0.9c1.8,0,3.5,0.3,5,0.9c1.5,0.6,2.8,1.5,3.9,2.6
			c1.1,1.1,1.9,2.5,2.5,4S468.7,167.9,468.7,169.7z M465.2,169.7c0-1.5-0.2-2.9-0.6-4.1s-1-2.3-1.8-3.1c-0.8-0.8-1.7-1.5-2.8-1.9
			c-1.1-0.5-2.3-0.7-3.7-0.7c-1.3,0-2.6,0.2-3.6,0.7c-1.1,0.5-2,1.1-2.8,1.9c-0.8,0.8-1.4,1.9-1.8,3.1c-0.4,1.2-0.6,2.6-0.6,4.1
			c0,1.5,0.2,2.9,0.6,4.1c0.4,1.2,1,2.2,1.8,3.1c0.8,0.8,1.7,1.5,2.8,1.9c1.1,0.4,2.3,0.7,3.6,0.7c1.3,0,2.6-0.2,3.7-0.7
			c1.1-0.4,2-1.1,2.8-1.9c0.8-0.8,1.4-1.9,1.8-3.1S465.2,171.3,465.2,169.7z"/>
		<path class="st0" d="M504.6,179.4h10.8v2.8h-14.2v-25h3.4V179.4z"/>
		<path class="st0" d="M568.8,169.7c0,1.9-0.3,3.6-0.9,5.2c-0.6,1.6-1.4,2.9-2.5,4c-1.1,1.1-2.4,2-3.9,2.6c-1.5,0.6-3.2,0.9-5,0.9
			c-1.8,0-3.5-0.3-5-0.9c-1.5-0.6-2.8-1.5-3.9-2.6c-1.1-1.1-1.9-2.5-2.5-4c-0.6-1.6-0.9-3.3-0.9-5.2c0-1.9,0.3-3.6,0.9-5.2
			c0.6-1.6,1.4-2.9,2.5-4c1.1-1.1,2.4-2,3.9-2.6c1.5-0.6,3.2-0.9,5-0.9c1.8,0,3.5,0.3,5,0.9c1.5,0.6,2.8,1.5,3.9,2.6
			c1.1,1.1,1.9,2.5,2.5,4S568.8,167.9,568.8,169.7z M565.4,169.7c0-1.5-0.2-2.9-0.6-4.1s-1-2.3-1.8-3.1c-0.8-0.8-1.7-1.5-2.8-1.9
			c-1.1-0.5-2.3-0.7-3.7-0.7c-1.3,0-2.6,0.2-3.6,0.7c-1.1,0.5-2,1.1-2.8,1.9c-0.8,0.8-1.4,1.9-1.8,3.1c-0.4,1.2-0.6,2.6-0.6,4.1
			c0,1.5,0.2,2.9,0.6,4.1c0.4,1.2,1,2.2,1.8,3.1c0.8,0.8,1.7,1.5,2.8,1.9c1.1,0.4,2.3,0.7,3.6,0.7c1.3,0,2.6-0.2,3.7-0.7
			c1.1-0.4,2-1.1,2.8-1.9c0.8-0.8,1.4-1.9,1.8-3.1S565.4,171.3,565.4,169.7z"/>
		<path class="st0" d="M614.1,174.1c0.1,0.3,0.2,0.6,0.4,0.9c0.1-0.3,0.2-0.6,0.4-0.9c0.1-0.3,0.3-0.6,0.4-0.9l8.5-15.4
			c0.2-0.3,0.3-0.4,0.5-0.5c0.2-0.1,0.4-0.1,0.7-0.1h2.5v25h-3v-18.4c0-0.2,0-0.5,0-0.8c0-0.3,0-0.6,0.1-0.9l-8.6,15.6
			c-0.3,0.5-0.7,0.8-1.2,0.8h-0.5c-0.5,0-0.9-0.3-1.2-0.8l-8.8-15.7c0,0.3,0.1,0.6,0.1,0.9c0,0.3,0,0.6,0,0.8v18.4h-3v-25h2.5
			c0.3,0,0.5,0,0.7,0.1c0.2,0.1,0.3,0.2,0.5,0.5l8.6,15.4C613.8,173.5,614,173.7,614.1,174.1z"/>
		<path class="st0" d="M661.3,182.2v-25h8c1.5,0,2.9,0.2,4,0.5c1.1,0.3,2,0.7,2.7,1.3c0.7,0.6,1.2,1.2,1.6,2
			c0.3,0.8,0.5,1.7,0.5,2.7c0,0.6-0.1,1.2-0.3,1.8c-0.2,0.6-0.5,1.1-0.9,1.6c-0.4,0.5-0.9,0.9-1.5,1.3c-0.6,0.4-1.3,0.7-2.1,0.9
			c1.8,0.4,3.2,1,4.1,2c0.9,1,1.4,2.2,1.4,3.8c0,1.1-0.2,2-0.6,2.9s-1,1.6-1.7,2.2s-1.7,1.1-2.8,1.5c-1.1,0.3-2.3,0.5-3.7,0.5H661.3
			z M664.7,168.4h4.5c1,0,1.8-0.1,2.5-0.3c0.7-0.2,1.3-0.5,1.7-0.9s0.8-0.8,1-1.4c0.2-0.5,0.3-1.1,0.3-1.7c0-1.5-0.4-2.5-1.3-3.2
			c-0.9-0.7-2.3-1-4.1-1h-4.6V168.4z M664.7,170.8v8.7h5.4c1,0,1.8-0.1,2.5-0.3c0.7-0.2,1.3-0.5,1.7-0.9c0.4-0.4,0.8-0.9,1-1.4
			c0.2-0.6,0.3-1.2,0.3-1.8c0-1.3-0.5-2.3-1.4-3.1c-0.9-0.8-2.3-1.1-4.1-1.1H664.7z"/>
		<path class="st0" d="M715.8,182.2h-3.4v-25h3.4V182.2z"/>
		<path class="st0" d="M771,182.2h-2.6c-0.3,0-0.5-0.1-0.7-0.2c-0.2-0.2-0.3-0.3-0.4-0.6l-2.3-6h-11.2l-2.3,6
			c-0.1,0.2-0.2,0.4-0.4,0.6c-0.2,0.2-0.4,0.2-0.7,0.2h-2.6l10-25h3.4L771,182.2z M754.6,172.9h9.3l-3.9-10.2
			c-0.3-0.6-0.5-1.4-0.8-2.4c-0.1,0.5-0.3,0.9-0.4,1.3c-0.1,0.4-0.2,0.8-0.4,1.1L754.6,172.9z"/>
	</g>
	<rect x="8" y="162.8" class="st0" width="361.6" height="12.7"/>
</g>
</svg>
