<?xml version="1.0" encoding="utf-8"?>
<!-- Generator: Adobe Illustrator 28.0.0, SVG Export Plug-In . SVG Version: 6.00 Build 0)  -->
<svg version="1.1" id="Layer_1" xmlns="http://www.w3.org/2000/svg" xmlns:xlink="http://www.w3.org/1999/xlink" x="0px" y="0px"
	 viewBox="0 0 800 235.3" style="enable-background:new 0 0 800 235.3;" xml:space="preserve">
<style type="text/css">
	.st0{fill:#FF6161;}
</style>
<g>
	<g>
		<g>
			<g>
				<path class="st0" d="M15.4,152l21.3-17.6c8.3,9.7,16.2,13.4,23.1,13.4c6.9,0,13-3.2,13-7.9c0-6-7.4-8.3-19.4-15.3
					c-11.3-6.5-22.2-17.1-22.2-32.4c0-22.2,20.8-38.9,46.7-38.9c16.7,0,29.6,8.3,39.3,18.5l-19.9,19c-5.6-5.6-12-10.2-19.4-10.2
					c-7.4,0-12,3.7-12,8.3c0,6.5,9.7,9.3,18.5,14.3c11.1,6,23.1,15.3,23.1,32.4c0,23.1-20.8,38.9-50,38.9
					C44.1,174.7,25.6,167.3,15.4,152z"/>
				<path class="st0" d="M123.7,126.5c0-44.9,33.8-73.1,65.7-73.1c27.8,0,46.3,19.4,46.3,48.1c0,44.9-33.8,73.1-65.7,73.1
					C142.2,174.7,123.7,155.2,123.7,126.5z M198.2,102c0-11.6-4.2-19-13-19c-13.4,0-24.1,18.1-24.1,43c0,11.6,4.2,19,13,19
					C187.6,145,198.2,127,198.2,102z"/>
				<path class="st0" d="M267.2,56.2h30.1V71h0.9c10.6-9.3,23.6-17.6,38.4-17.6c19,0,27.3,10.2,27.3,30.1c0,5.1-0.7,11.1-1.9,16.7
					l-14.3,71.7h-37l13.4-67.1c0.9-4.2,1.9-7.4,1.9-10.2c0-6.5-3.7-9.7-9.7-9.7c-6.5,0-12,4.2-20.4,13l-14.3,74.1h-37L267.2,56.2z"
					/>
				<path class="st0" d="M397.7,56.2h37l-23.1,115.7h-37L397.7,56.2z M402.8,24.2c0-11.1,9.7-20.8,22.2-20.8c9.7,0,19.4,6,19.4,17.1
					c0,12-9.7,20.8-22.2,20.8C412.5,41.4,402.8,35.8,402.8,24.2z"/>
				<path class="st0" d="M470.8,10.8h37l-17.6,87h0.9l38-41.7h40.7l-47.7,51.4l27.3,64.3h-37l-15.7-43L481,144.6l-5.6,27.3h-37
					L470.8,10.8z"/>
				<path class="st0" d="M562,132.1c0-44,29.6-78.7,61.6-78.7c9.7,0,19.9,5.6,24.1,14.3h0.5l5.1-11.6h29.6l-23.1,115.7h-30.1v-14.3
					h-0.5c-10.2,10.6-23.6,17.1-34.7,17.1C574,174.7,562,159.4,562,132.1z M631.4,129.3l7.4-37c-2.8-6-8.3-8.8-12.5-8.8
					c-13.4,0-25.9,18.1-25.9,44c0,12,4.2,17.1,10.6,17.1C617.1,144.6,625.4,141.8,631.4,129.3z"/>
				<path class="st0" d="M682.3,152l21.3-17.6c8.3,9.7,16.2,13.4,23.1,13.4c6.9,0,13-3.2,13-7.9c0-6-7.4-8.3-19.4-15.3
					c-11.3-6.5-22.2-17.1-22.2-32.4c0-22.2,20.8-38.9,46.7-38.9c16.7,0,29.6,8.3,39.3,18.5l-19.9,19c-5.6-5.6-12-10.2-19.4-10.2
					c-7.4,0-12,3.7-12,8.3c0,6.5,9.7,9.3,18.5,14.3c11.1,6,23.1,15.3,23.1,32.4c0,23.1-20.8,38.9-50,38.9
					C711,174.7,692.5,167.3,682.3,152z"/>
			</g>
		</g>
		<g>
			<g>
				<path class="st0" d="M233.7,45.5c-11.9-10.5-27.4-16.8-44.5-16.8c-17.1,0-32.6,6.4-44.5,16.8H233.7z"/>
			</g>
			<g>
				<path class="st0" d="M226.1,25.8c-9.8-8.7-22.7-13.9-36.9-13.9c-14.1,0-27,5.3-36.9,13.9H226.1z"/>
			</g>
			<g>
				<path class="st0" d="M208.8,8.5c-5.8-3.2-12.5-5.1-19.6-5.1s-13.8,1.8-19.6,5.1H208.8z"/>
			</g>
		</g>
		<g>
			<g>
				<path class="st0" d="M124.7,184.1c11.9,10.5,27.4,16.8,44.5,16.8c17.1,0,32.6-6.4,44.5-16.8H124.7z"/>
			</g>
			<g>
				<path class="st0" d="M132.3,203.8c9.8,8.7,22.7,13.9,36.9,13.9c14.1,0,27-5.3,36.9-13.9H132.3z"/>
			</g>
			<g>
				<path class="st0" d="M149.6,221.1c5.8,3.2,12.5,5.1,19.6,5.1s13.8-1.8,19.6-5.1H149.6z"/>
			</g>
		</g>
	</g>
</g>
</svg>
