<?xml version="1.0" encoding="utf-8"?>
<!-- Generator: Adobe Illustrator 19.2.0, SVG Export Plug-In . SVG Version: 6.00 Build 0)  -->
<svg version="1.1" id="Layer_1" xmlns="http://www.w3.org/2000/svg" xmlns:xlink="http://www.w3.org/1999/xlink" x="0px" y="0px"
	 viewBox="0 0 700 120" style="enable-background:new 0 0 700 120;" xml:space="preserve">
<style type="text/css">
	.st0{fill:#FFFFFF;}
</style>
<g>
	<g>
		<g>
			<path class="st0" d="M67.2,41.7c0,4.9-0.8,9.4-2.5,13.6c-1.7,4.1-4.1,7.7-7.1,10.8s-6.8,5.4-11.1,7.1c-4.3,1.7-9.1,2.5-14.4,2.5
				H5.6V7.8h26.4c5.3,0,10.1,0.9,14.4,2.6c4.3,1.7,8,4.1,11.1,7.1c3.1,3,5.5,6.6,7.1,10.7S67.2,36.8,67.2,41.7z M51,41.7
				c0-3.4-0.4-6.4-1.3-9.1c-0.9-2.7-2.1-5-3.7-6.9c-1.6-1.9-3.6-3.3-6-4.3c-2.4-1-5-1.5-8.1-1.5H21.4v43.6h10.5c3,0,5.7-0.5,8.1-1.5
				c2.4-1,4.4-2.5,6-4.3c1.6-1.9,2.9-4.2,3.7-6.9C50.6,48.1,51,45.1,51,41.7z"/>
			<path class="st0" d="M91.9,75.6H76.1V7.8h15.8V75.6z"/>
			<path class="st0" d="M148.2,7.8v12.1h-27.9v15.8h21.3v11.6h-21.3v16.2h27.9v12.1h-43.7V7.8H148.2z"/>
			<path class="st0" d="M195,21.6c-0.5,0.7-1,1.3-1.5,1.7c-0.5,0.4-1.2,0.6-2,0.6c-0.7,0-1.5-0.2-2.3-0.7c-0.8-0.4-1.8-1-2.8-1.5
				c-1-0.6-2.2-1.1-3.6-1.5c-1.3-0.4-2.9-0.7-4.6-0.7c-3,0-5.1,0.6-6.6,1.9c-1.4,1.3-2.2,3-2.2,5.1c0,1.4,0.4,2.5,1.3,3.4
				c0.9,0.9,2,1.7,3.4,2.3c1.4,0.7,3,1.3,4.8,1.8c1.8,0.5,3.7,1.1,5.6,1.8c1.9,0.7,3.7,1.5,5.6,2.4c1.8,0.9,3.4,2,4.8,3.4
				c1.4,1.4,2.6,3.1,3.4,5.1c0.9,2,1.3,4.4,1.3,7.2c0,3.1-0.5,6.1-1.6,8.8c-1.1,2.7-2.7,5.1-4.7,7.1c-2.1,2-4.6,3.6-7.6,4.8
				c-3,1.2-6.5,1.7-10.3,1.7c-2.1,0-4.3-0.2-6.5-0.7c-2.2-0.4-4.3-1-6.4-1.8c-2-0.8-4-1.7-5.8-2.8c-1.8-1.1-3.4-2.3-4.7-3.6l4.7-7.4
				c0.3-0.6,0.8-1,1.4-1.4c0.6-0.3,1.3-0.5,2-0.5c0.9,0,1.9,0.3,2.8,0.9c0.9,0.6,2,1.2,3.2,2c1.2,0.7,2.6,1.4,4.1,2
				c1.6,0.6,3.4,0.9,5.5,0.9c2.9,0,5.1-0.6,6.7-1.9c1.6-1.3,2.4-3.3,2.4-6c0-1.6-0.4-2.9-1.3-3.9c-0.9-1-2-1.8-3.4-2.5
				c-1.4-0.7-3-1.2-4.8-1.7c-1.8-0.5-3.6-1-5.5-1.7c-1.9-0.6-3.7-1.4-5.5-2.2c-1.8-0.9-3.4-2-4.8-3.5c-1.4-1.4-2.6-3.2-3.4-5.4
				c-0.9-2.2-1.3-4.8-1.3-8c0-2.5,0.5-5,1.5-7.5c1-2.4,2.5-4.6,4.5-6.5c2-1.9,4.4-3.4,7.3-4.5c2.9-1.1,6.2-1.7,9.9-1.7
				c2.1,0,4.1,0.2,6.1,0.5c2,0.3,3.8,0.8,5.6,1.4c1.8,0.6,3.4,1.4,5,2.3c1.5,0.9,2.9,1.9,4.1,3L195,21.6z"/>
			<path class="st0" d="M251.3,7.8v12.1h-27.9v15.8h21.3v11.6h-21.3v16.2h27.9v12.1h-43.7V7.8H251.3z"/>
			<path class="st0" d="M276,63.1h25.2v12.6h-40.9V7.8H276V63.1z"/>
			<path class="st0" d="M345.1,48.3c0.6,1.3,1.1,2.6,1.7,3.9c0.5-1.4,1.1-2.7,1.7-4c0.6-1.3,1.2-2.5,1.8-3.8l17.4-34.3
				c0.3-0.6,0.6-1,1-1.4c0.3-0.3,0.7-0.6,1.1-0.7c0.4-0.2,0.9-0.2,1.4-0.2c0.5,0,1.1,0,1.8,0h12v67.8H371v-39c0-1.9,0.1-3.9,0.3-6.1
				l-18,34.9c-0.6,1.1-1.3,1.9-2.3,2.5c-0.9,0.6-2,0.8-3.2,0.8h-2.1c-1.2,0-2.3-0.3-3.2-0.8c-0.9-0.6-1.7-1.4-2.3-2.5l-18.1-34.9
				c0.1,1.1,0.2,2.2,0.3,3.2c0.1,1.1,0.1,2.1,0.1,3v39h-13.9V7.8h12c0.7,0,1.3,0,1.8,0c0.5,0,1,0.1,1.4,0.2c0.4,0.2,0.8,0.4,1.1,0.7
				c0.3,0.3,0.6,0.8,1,1.4l17.5,34.5C344,45.8,344.6,47,345.1,48.3z"/>
			<path class="st0" d="M463.1,41.7c0,4.9-0.8,9.5-2.5,13.7c-1.7,4.2-4.1,7.9-7.1,11c-3.1,3.1-6.8,5.6-11.1,7.3
				c-4.3,1.8-9.1,2.7-14.4,2.7c-5.3,0-10.1-0.9-14.4-2.7c-4.3-1.8-8.1-4.2-11.2-7.3c-3.1-3.1-5.5-6.8-7.2-11
				c-1.7-4.2-2.5-8.8-2.5-13.7c0-4.9,0.8-9.5,2.5-13.7c1.7-4.2,4.1-7.9,7.2-11c3.1-3.1,6.8-5.5,11.2-7.3c4.3-1.8,9.2-2.7,14.4-2.7
				c5.3,0,10.1,0.9,14.4,2.7c4.3,1.8,8,4.2,11.1,7.3c3.1,3.1,5.5,6.8,7.1,11S463.1,36.8,463.1,41.7z M447,41.7
				c0-3.4-0.4-6.4-1.3-9.1c-0.9-2.7-2.1-5-3.7-6.8c-1.6-1.9-3.6-3.3-6-4.3c-2.4-1-5-1.5-8.1-1.5c-3,0-5.8,0.5-8.1,1.5
				c-2.4,1-4.4,2.4-6,4.3c-1.6,1.9-2.9,4.1-3.7,6.8s-1.3,5.7-1.3,9.1c0,3.4,0.4,6.4,1.3,9.1c0.9,2.7,2.1,5,3.7,6.8
				c1.6,1.9,3.6,3.3,6,4.3c2.4,1,5.1,1.5,8.1,1.5c3,0,5.7-0.5,8.1-1.5c2.4-1,4.4-2.4,6-4.3s2.9-4.1,3.7-6.8
				C446.5,48.1,447,45.1,447,41.7z"/>
			<path class="st0" d="M517.1,7.8v12.5H498v55.4h-15.7V20.3h-19.1V7.8H517.1z"/>
			<path class="st0" d="M587.8,41.7c0,4.9-0.8,9.5-2.5,13.7c-1.7,4.2-4.1,7.9-7.1,11c-3.1,3.1-6.8,5.6-11.1,7.3
				c-4.3,1.8-9.1,2.7-14.4,2.7s-10.1-0.9-14.4-2.7c-4.3-1.8-8.1-4.2-11.2-7.3c-3.1-3.1-5.5-6.8-7.2-11c-1.7-4.2-2.5-8.8-2.5-13.7
				c0-4.9,0.8-9.5,2.5-13.7c1.7-4.2,4.1-7.9,7.2-11c3.1-3.1,6.8-5.5,11.2-7.3c4.3-1.8,9.2-2.7,14.4-2.7s10.1,0.9,14.4,2.7
				c4.3,1.8,8,4.2,11.1,7.3c3.1,3.1,5.5,6.8,7.1,11C587,32.3,587.8,36.8,587.8,41.7z M571.7,41.7c0-3.4-0.4-6.4-1.3-9.1
				c-0.9-2.7-2.1-5-3.7-6.8c-1.6-1.9-3.6-3.3-6-4.3c-2.4-1-5-1.5-8.1-1.5c-3,0-5.8,0.5-8.1,1.5c-2.4,1-4.4,2.4-6,4.3
				c-1.6,1.9-2.9,4.1-3.7,6.8s-1.3,5.7-1.3,9.1c0,3.4,0.4,6.4,1.3,9.1c0.9,2.7,2.1,5,3.7,6.8c1.6,1.9,3.6,3.3,6,4.3
				c2.4,1,5.1,1.5,8.1,1.5c3,0,5.7-0.5,8.1-1.5c2.4-1,4.4-2.4,6-4.3c1.6-1.9,2.9-4.1,3.7-6.8C571.3,48.1,571.7,45.1,571.7,41.7z"/>
			<path class="st0" d="M611.1,50.5v25.1h-15.7V7.8h22.1c4.9,0,9.1,0.5,12.6,1.5c3.5,1,6.3,2.4,8.5,4.2s3.8,3.9,4.8,6.4
				c1,2.5,1.5,5.1,1.5,8c0,2.2-0.3,4.3-0.9,6.2c-0.6,2-1.5,3.8-2.6,5.4c-1.2,1.7-2.6,3.1-4.3,4.4c-1.7,1.3-3.6,2.4-5.8,3.2
				c1.1,0.5,2,1.2,3,2c0.9,0.8,1.7,1.7,2.4,2.8l14.4,23.6h-14.3c-2.6,0-4.5-1-5.7-3L619.7,53c-0.5-0.9-1.1-1.5-1.7-1.9
				c-0.7-0.4-1.6-0.6-2.8-0.6H611.1z M611.1,39.7h6.3c2.1,0,4-0.3,5.5-0.8c1.5-0.5,2.7-1.3,3.7-2.3c1-1,1.7-2.1,2.1-3.4
				c0.4-1.3,0.7-2.7,0.7-4.2c0-3-1-5.3-2.9-7c-1.9-1.7-4.9-2.5-9-2.5h-6.3V39.7z"/>
			<path class="st0" d="M695.2,21.6c-0.5,0.7-1,1.3-1.5,1.7c-0.5,0.4-1.2,0.6-2,0.6c-0.7,0-1.5-0.2-2.3-0.7c-0.8-0.4-1.8-1-2.8-1.5
				c-1-0.6-2.2-1.1-3.6-1.5c-1.3-0.4-2.9-0.7-4.6-0.7c-3,0-5.1,0.6-6.6,1.9c-1.4,1.3-2.2,3-2.2,5.1c0,1.4,0.4,2.5,1.3,3.4
				c0.9,0.9,2,1.7,3.4,2.3c1.4,0.7,3,1.3,4.8,1.8c1.8,0.5,3.7,1.1,5.6,1.8c1.9,0.7,3.7,1.5,5.6,2.4c1.8,0.9,3.4,2,4.8,3.4
				c1.4,1.4,2.6,3.1,3.4,5.1c0.9,2,1.3,4.4,1.3,7.2c0,3.1-0.5,6.1-1.6,8.8c-1.1,2.7-2.7,5.1-4.7,7.1c-2.1,2-4.6,3.6-7.6,4.8
				c-3,1.2-6.5,1.7-10.3,1.7c-2.1,0-4.3-0.2-6.5-0.7c-2.2-0.4-4.3-1-6.4-1.8c-2-0.8-4-1.7-5.8-2.8c-1.8-1.1-3.4-2.3-4.7-3.6l4.7-7.4
				c0.3-0.6,0.8-1,1.4-1.4c0.6-0.3,1.3-0.5,2-0.5c0.9,0,1.9,0.3,2.8,0.9c0.9,0.6,2,1.2,3.2,2c1.2,0.7,2.6,1.4,4.1,2
				c1.6,0.6,3.4,0.9,5.5,0.9c2.9,0,5.1-0.6,6.7-1.9c1.6-1.3,2.4-3.3,2.4-6c0-1.6-0.4-2.9-1.3-3.9c-0.9-1-2-1.8-3.4-2.5
				c-1.4-0.7-3-1.2-4.8-1.7c-1.8-0.5-3.7-1-5.5-1.7c-1.9-0.6-3.7-1.4-5.5-2.2c-1.8-0.9-3.4-2-4.8-3.5c-1.4-1.4-2.6-3.2-3.4-5.4
				c-0.9-2.2-1.3-4.8-1.3-8c0-2.5,0.5-5,1.5-7.5c1-2.4,2.5-4.6,4.5-6.5c2-1.9,4.4-3.4,7.3-4.5c2.9-1.1,6.2-1.7,9.9-1.7
				c2.1,0,4.1,0.2,6.1,0.5c2,0.3,3.8,0.8,5.6,1.4c1.8,0.6,3.4,1.4,5,2.3c1.5,0.9,2.9,1.9,4.1,3L695.2,21.6z"/>
		</g>
		<g>
			<path class="st0" d="M365.9,113.4c0.2,0,0.3,0.1,0.5,0.2l1.2,1.3c-0.9,1.1-2.1,1.9-3.4,2.5c-1.3,0.6-2.9,0.9-4.8,0.9
				c-1.6,0-3.1-0.3-4.4-0.8c-1.3-0.6-2.5-1.4-3.4-2.4c-0.9-1-1.7-2.2-2.2-3.7c-0.5-1.4-0.8-3-0.8-4.7s0.3-3.3,0.8-4.7
				c0.6-1.4,1.3-2.6,2.3-3.7c1-1,2.2-1.8,3.6-2.4s2.9-0.8,4.6-0.8c1.7,0,3.1,0.3,4.3,0.8c1.2,0.5,2.3,1.2,3.2,2.1l-1,1.4
				c-0.1,0.1-0.2,0.2-0.3,0.3c-0.1,0.1-0.2,0.1-0.4,0.1c-0.1,0-0.3-0.1-0.4-0.2c-0.2-0.1-0.3-0.2-0.5-0.4c-0.2-0.1-0.5-0.3-0.7-0.5
				c-0.3-0.2-0.6-0.3-1-0.5c-0.4-0.1-0.8-0.3-1.4-0.4c-0.5-0.1-1.1-0.2-1.8-0.2c-1.2,0-2.3,0.2-3.3,0.6c-1,0.4-1.9,1-2.6,1.8
				c-0.7,0.8-1.3,1.7-1.7,2.8c-0.4,1.1-0.6,2.3-0.6,3.7c0,1.4,0.2,2.7,0.6,3.8c0.4,1.1,1,2,1.7,2.8c0.7,0.8,1.5,1.3,2.5,1.7
				c1,0.4,2,0.6,3.1,0.6c0.7,0,1.3,0,1.8-0.1c0.5-0.1,1-0.2,1.5-0.4c0.5-0.2,0.9-0.4,1.3-0.6c0.4-0.3,0.8-0.6,1.2-0.9
				C365.5,113.4,365.7,113.4,365.9,113.4z"/>
			<path class="st0" d="M418,106.7c0,1.7-0.3,3.3-0.8,4.7c-0.5,1.4-1.3,2.6-2.3,3.7c-1,1-2.2,1.8-3.5,2.4c-1.4,0.6-2.9,0.8-4.6,0.8
				c-1.7,0-3.2-0.3-4.6-0.8s-2.5-1.4-3.5-2.4c-1-1-1.7-2.2-2.3-3.7c-0.5-1.4-0.8-3-0.8-4.7c0-1.7,0.3-3.3,0.8-4.7
				c0.5-1.4,1.3-2.6,2.3-3.7c1-1,2.2-1.8,3.5-2.4c1.4-0.6,2.9-0.9,4.6-0.9c1.7,0,3.2,0.3,4.6,0.9c1.4,0.6,2.6,1.4,3.5,2.4
				c1,1,1.7,2.3,2.3,3.7C417.7,103.5,418,105,418,106.7z M414.8,106.7c0-1.4-0.2-2.6-0.6-3.7c-0.4-1.1-0.9-2-1.6-2.8
				c-0.7-0.8-1.5-1.4-2.5-1.8c-1-0.4-2.1-0.6-3.3-0.6c-1.2,0-2.3,0.2-3.3,0.6c-1,0.4-1.8,1-2.5,1.8c-0.7,0.8-1.2,1.7-1.6,2.8
				s-0.6,2.4-0.6,3.7s0.2,2.6,0.6,3.7c0.4,1.1,0.9,2,1.6,2.8c0.7,0.8,1.5,1.4,2.5,1.8c1,0.4,2.1,0.6,3.3,0.6c1.2,0,2.3-0.2,3.3-0.6
				c1-0.4,1.8-1,2.5-1.8c0.7-0.8,1.2-1.7,1.6-2.8C414.6,109.4,414.8,108.1,414.8,106.7z"/>
			<path class="st0" d="M450.5,115.5h9.8v2.6h-12.9V95.4h3.1V115.5z"/>
			<path class="st0" d="M508.8,106.7c0,1.7-0.3,3.3-0.8,4.7c-0.5,1.4-1.3,2.6-2.3,3.7c-1,1-2.2,1.8-3.5,2.4
				c-1.4,0.6-2.9,0.8-4.6,0.8c-1.7,0-3.2-0.3-4.6-0.8c-1.4-0.6-2.5-1.4-3.5-2.4c-1-1-1.7-2.2-2.3-3.7c-0.5-1.4-0.8-3-0.8-4.7
				c0-1.7,0.3-3.3,0.8-4.7c0.5-1.4,1.3-2.6,2.3-3.7c1-1,2.2-1.8,3.5-2.4c1.4-0.6,2.9-0.9,4.6-0.9c1.7,0,3.2,0.3,4.6,0.9
				c1.4,0.6,2.6,1.4,3.5,2.4c1,1,1.7,2.3,2.3,3.7C508.6,103.5,508.8,105,508.8,106.7z M505.7,106.7c0-1.4-0.2-2.6-0.6-3.7
				c-0.4-1.1-0.9-2-1.6-2.8c-0.7-0.8-1.5-1.4-2.5-1.8c-1-0.4-2.1-0.6-3.3-0.6c-1.2,0-2.3,0.2-3.3,0.6c-1,0.4-1.8,1-2.5,1.8
				c-0.7,0.8-1.2,1.7-1.6,2.8c-0.4,1.1-0.6,2.4-0.6,3.7s0.2,2.6,0.6,3.7c0.4,1.1,0.9,2,1.6,2.8c0.7,0.8,1.5,1.4,2.5,1.8
				c1,0.4,2.1,0.6,3.3,0.6c1.2,0,2.3-0.2,3.3-0.6c1-0.4,1.8-1,2.5-1.8c0.7-0.8,1.2-1.7,1.6-2.8C505.5,109.4,505.7,108.1,505.7,106.7
				z"/>
			<path class="st0" d="M549.9,110.7c0.1,0.3,0.2,0.6,0.3,0.8c0.1-0.3,0.2-0.6,0.3-0.8c0.1-0.3,0.2-0.5,0.4-0.8l7.7-13.9
				c0.1-0.2,0.3-0.4,0.4-0.4c0.1-0.1,0.4-0.1,0.6-0.1h2.3V118h-2.7v-16.7c0-0.2,0-0.5,0-0.7c0-0.3,0-0.5,0-0.8l-7.8,14.2
				c-0.3,0.5-0.6,0.7-1.1,0.7H550c-0.5,0-0.8-0.2-1.1-0.7l-7.9-14.2c0,0.3,0.1,0.5,0.1,0.8c0,0.3,0,0.5,0,0.7V118h-2.7V95.4h2.3
				c0.3,0,0.5,0,0.6,0.1c0.1,0.1,0.3,0.2,0.4,0.4l7.8,14C549.6,110.1,549.8,110.4,549.9,110.7z"/>
			<path class="st0" d="M592.8,118V95.4h7.2c1.4,0,2.6,0.1,3.6,0.4c1,0.3,1.8,0.7,2.5,1.2c0.6,0.5,1.1,1.1,1.4,1.9
				c0.3,0.7,0.5,1.6,0.5,2.5c0,0.6-0.1,1.1-0.3,1.6c-0.2,0.5-0.4,1-0.8,1.4c-0.4,0.4-0.8,0.8-1.3,1.2c-0.5,0.3-1.2,0.6-1.9,0.9
				c1.7,0.3,2.9,0.9,3.8,1.8c0.8,0.9,1.3,2,1.3,3.4c0,1-0.2,1.8-0.5,2.6c-0.4,0.8-0.9,1.5-1.6,2c-0.7,0.6-1.5,1-2.5,1.3
				c-1,0.3-2.1,0.5-3.4,0.5H592.8z M595.8,105.5h4c0.9,0,1.6-0.1,2.2-0.3c0.6-0.2,1.2-0.5,1.6-0.8s0.7-0.7,0.9-1.2
				c0.2-0.5,0.3-1,0.3-1.6c0-1.3-0.4-2.3-1.2-2.9c-0.8-0.6-2-0.9-3.7-0.9h-4.2V105.5z M595.8,107.7v7.9h4.9c0.9,0,1.6-0.1,2.3-0.3
				c0.6-0.2,1.1-0.5,1.5-0.8c0.4-0.4,0.7-0.8,0.9-1.3c0.2-0.5,0.3-1.1,0.3-1.7c0-1.2-0.4-2.1-1.2-2.8c-0.8-0.7-2.1-1-3.8-1H595.8z"
				/>
			<path class="st0" d="M642.2,118h-3.1V95.4h3.1V118z"/>
			<path class="st0" d="M692.2,118h-2.4c-0.3,0-0.5-0.1-0.7-0.2c-0.2-0.1-0.3-0.3-0.4-0.5l-2.1-5.5h-10.2l-2.1,5.5
				c-0.1,0.2-0.2,0.4-0.4,0.5c-0.2,0.1-0.4,0.2-0.7,0.2H671l9.1-22.7h3.1L692.2,118z M677.4,109.6h8.5l-3.6-9.2
				c-0.2-0.6-0.5-1.3-0.7-2.1c-0.1,0.4-0.2,0.8-0.3,1.2c-0.1,0.4-0.2,0.7-0.3,1L677.4,109.6z"/>
		</g>
		<rect y="100.5" class="st0" width="328.1" height="11.5"/>
	</g>
</g>
</svg>
